<?xml version="1.0" encoding="UTF-8" standalone="no"?>
<!-- Created with Inkscape (http://www.inkscape.org/) -->

<svg
   xmlns:dc="http://purl.org/dc/elements/1.1/"
   xmlns:cc="http://creativecommons.org/ns#"
   xmlns:rdf="http://www.w3.org/1999/02/22-rdf-syntax-ns#"
   xmlns:svg="http://www.w3.org/2000/svg"
   xmlns="http://www.w3.org/2000/svg"
   xmlns:sodipodi="http://sodipodi.sourceforge.net/DTD/sodipodi-0.dtd"
   xmlns:inkscape="http://www.inkscape.org/namespaces/inkscape"
   width="184"
   height="358.28665"
   viewBox="0 0 184 358.28666"
   id="svg2"
   version="1.1"
   inkscape:version="0.91 r13725"
   sodipodi:docname="diu_win.svg"
   inkscape:export-filename="C:\Users\David\Documents\My Games\skeny\diu win\diu_win.png"
   inkscape:export-xdpi="72"
   inkscape:export-ydpi="72">
  <defs
     id="defs4" />
  <sodipodi:namedview
     id="base"
     pagecolor="#ffffff"
     bordercolor="#666666"
     borderopacity="1.0"
     inkscape:pageopacity="0.0"
     inkscape:pageshadow="2"
     inkscape:zoom="1.3541343"
     inkscape:cx="44.610282"
     inkscape:cy="184.61298"
     inkscape:document-units="px"
     inkscape:current-layer="layer1"
     showgrid="false"
     showborder="false"
     inkscape:window-width="1366"
     inkscape:window-height="705"
     inkscape:window-x="-8"
     inkscape:window-y="-8"
     inkscape:window-maximized="1"
     showguides="false"
     inkscape:snap-others="false"
     inkscape:snap-grids="false"
     inkscape:snap-to-guides="false"
     units="px"
     fit-margin-top="0"
     fit-margin-left="0"
     fit-margin-right="0"
     fit-margin-bottom="0" />
  <metadata
     id="metadata7">
    <rdf:RDF>
      <cc:Work
         rdf:about="">
        <dc:format>image/svg+xml</dc:format>
        <dc:type
           rdf:resource="http://purl.org/dc/dcmitype/StillImage" />
        <dc:title></dc:title>
      </cc:Work>
    </rdf:RDF>
  </metadata>
  <g
     inkscape:groupmode="layer"
     id="layer2"
     inkscape:label="pozadi bile"
     sodipodi:insensitive="true"
     transform="translate(0,-694.07556)" />
  <g
     inkscape:groupmode="layer"
     id="layer1"
     inkscape:label="pozadi barva"
     style="display:inline"
     transform="translate(0,-694.07556)">
    <path
       style="fill:#999999;fill-rule:evenodd;stroke:none;stroke-width:1px;stroke-linecap:butt;stroke-linejoin:miter;stroke-opacity:1"
       d="M 130.04649,697.34073 184,761.45939 l -6.25548,54.73544 -30.49546,32.84127 -15.6387,-4.6916 -14.07482,21.89417 35.18706,32.84126 7.81935,23.45805 -29.71352,23.45804 -2.00006,26.74692 3.31747,18.24608 -10.50532,28.19848 12.71696,8.8466 2.21165,10.5053 -12.71696,4.4233 -18.24608,-8.8466 0,-13.2699 -11.058233,-21.0106 -23.222278,23.7752 2.764557,19.9048 -9.952407,8.8466 -11.058229,-1.6588 -6.634936,-7.1878 6.082026,-14.9286 0,-27.6456 -4.976203,-1.65871 3.317466,-12.16406 -11.058228,-11.05822 -12.716963,14.92861 -2.211646,13.82278 12.164052,16.5873 -4.976203,4.4233 L 9.9524064,1019.1875 0,1002.6002 8.8465835,974.40168 28.751397,954.49686 l 17.693167,-13.82278 -8.846583,-12.16406 6.082023,-3.87038 2.76456,-18.79899 -12.716965,-12.16405 -0.552911,-17.69317 29.857218,-17.14025 -17.693165,-16.58735 -7.18785,6.63494 -14.92861,1.65874 -8.846583,-16.58735 7.740761,-39.80963 -14.9286101,-27.64557 24.8810161,-32.62178 11.611139,-3.87037 2.76456,-13.54633 27.922026,-22.39292 0.276459,12.71697 34.280511,-1.9352 z"
       id="path4215"
       inkscape:connector-curvature="0" />
  </g>
  <g
     inkscape:groupmode="layer"
     id="layer3"
     inkscape:label="vypln barva"
     sodipodi:insensitive="true"
     style="display:inline"
     transform="translate(0,-694.07556)" />
  <g
     inkscape:groupmode="layer"
     id="layer4"
     inkscape:label="stiny"
     sodipodi:insensitive="true"
     style="display:inline"
     transform="translate(0,-694.07556)" />
  <g
     inkscape:groupmode="layer"
     id="layer5"
     inkscape:label="obrys"
     style="display:inline;opacity:1"
     transform="translate(0,-694.07556)">
    <path
       style="fill:none;fill-rule:evenodd;stroke:#000000;stroke-width:0.68946546;stroke-linecap:butt;stroke-linejoin:miter;stroke-miterlimit:4;stroke-dasharray:none;stroke-opacity:1"
       d="m 85.54961,763.12911 c 12.013924,15.75674 8.597431,16.90228 15.68534,30.16412 C 80.718739,786.92826 75.111527,778.4686 67.928214,771.15894"
       id="path4219"
       inkscape:connector-curvature="0"
       sodipodi:nodetypes="ccc" />
    <path
       style="fill:none;fill-rule:evenodd;stroke:#000000;stroke-width:0.68946546;stroke-linecap:butt;stroke-linejoin:miter;stroke-miterlimit:4;stroke-dasharray:none;stroke-opacity:1"
       d="m 122.92758,753.12811 c 7.40343,9.64655 12.43518,23.78968 11.60922,50.58079 -11.2053,-14.95529 -21.9898,-11.31433 -39.12394,-24.01064"
       id="path4221"
       inkscape:connector-curvature="0"
       sodipodi:nodetypes="ccc" />
    <path
       style="fill:none;fill-rule:evenodd;stroke:#000000;stroke-width:0.68946546;stroke-linecap:butt;stroke-linejoin:miter;stroke-miterlimit:4;stroke-dasharray:none;stroke-opacity:1"
       d="m 155.18562,757.09629 c 14.89445,31.91931 1.09691,31.43756 18.78793,58.4322 -18.40757,-2.75672 -28.90746,-13.73214 -39.28907,-21.78956"
       id="path4223"
       inkscape:connector-curvature="0"
       sodipodi:nodetypes="ccc" />
    <path
       style="fill:none;fill-rule:evenodd;stroke:#000000;stroke-width:0.68946546;stroke-linecap:butt;stroke-linejoin:miter;stroke-miterlimit:4;stroke-dasharray:none;stroke-opacity:1"
       d="m 60.524303,769.33834 c -1.679031,9.33569 -5.383177,18.28071 -15.600821,24.98569 10.110326,0.67185 18.673589,-2.66347 24.132521,-11.33498"
       id="path4225"
       inkscape:connector-curvature="0"
       sodipodi:nodetypes="ccc" />
    <path
       style="fill:none;fill-rule:evenodd;stroke:#000000;stroke-width:0.68946546;stroke-linecap:butt;stroke-linejoin:miter;stroke-miterlimit:4;stroke-dasharray:none;stroke-opacity:1"
       d="m 56.441279,793.16616 c -2.737899,7.95997 -7.930601,17.43839 -12.492849,23.82781 21.544905,-1.73428 28.516542,-23.1706 33.578332,-35.95501"
       id="path4227"
       inkscape:connector-curvature="0"
       sodipodi:nodetypes="ccc" />
    <path
       style="fill:none;fill-rule:evenodd;stroke:#000000;stroke-width:0.68946546;stroke-linecap:butt;stroke-linejoin:miter;stroke-miterlimit:4;stroke-dasharray:none;stroke-opacity:1"
       d="m 66.25273,804.3183 c -5.834663,18.29155 -9.005211,33.51782 -3.47362,48.32599 -14.144463,-5.59102 -19.484813,-21.32823 -14.869532,-36.25973"
       id="path4229"
       inkscape:connector-curvature="0"
       sodipodi:nodetypes="ccc" />
    <path
       style="fill:none;fill-rule:evenodd;stroke:#000000;stroke-width:0.68946546;stroke-linecap:butt;stroke-linejoin:miter;stroke-miterlimit:4;stroke-dasharray:none;stroke-opacity:1"
       d="m 39.499761,753.92034 c -14.305631,16.7197 -24.169944,14.3588 -28.703075,11.57873 17.253067,-9.02272 20.063422,-32.30954 35.467493,-31.14069 0.833533,-16.94824 19.826417,-19.8346 25.351334,-35.95503 0.674163,6.48632 -0.979185,11.87703 -4.083024,16.81964 28.499954,-14.5267 27.498626,4.31299 60.270361,-13.52884 -1.03719,7.15909 -7.55864,16.45657 -12.67567,19.37915 8.29033,0.93915 17.02231,0.007 25.71698,-2.19387 -2.02835,2.75745 -6.48546,6.48044 -12.18814,10.11616 32.25378,7.93843 32.42833,32.85207 50.33703,35.10185 -6.53957,3.85174 -14.5318,3.78226 -19.98856,1.95011"
       id="path4231"
       inkscape:connector-curvature="0"
       sodipodi:nodetypes="ccccccccccc" />
    <path
       style="fill:none;fill-rule:evenodd;stroke:#000000;stroke-width:0.68946546;stroke-linecap:butt;stroke-linejoin:miter;stroke-miterlimit:4;stroke-dasharray:none;stroke-opacity:1"
       d="m 34.990147,787.37679 c -10.573371,-2.19533 -9.856331,-13.41059 -10.238038,-21.45113 -7.939433,15.09412 -4.21584,32.47903 16.941517,24.98569"
       id="path4233"
       inkscape:connector-curvature="0"
       sodipodi:nodetypes="ccc" />
    <path
       style="fill:none;fill-rule:evenodd;stroke:#000000;stroke-width:0.68946546;stroke-linecap:butt;stroke-linejoin:miter;stroke-miterlimit:4;stroke-dasharray:none;stroke-opacity:1"
       d="m 25.909982,777.44345 c 5.858084,2.26876 12.076216,-1.85079 16.210227,-8.47075"
       id="path4235"
       inkscape:connector-curvature="0"
       sodipodi:nodetypes="cc" />
    <path
       style="fill:none;fill-rule:evenodd;stroke:#000000;stroke-width:0.68946546;stroke-linecap:butt;stroke-linejoin:miter;stroke-miterlimit:4;stroke-dasharray:none;stroke-opacity:1"
       d="m 26.772684,791.56956 c -5.944597,25.96216 6.617587,23.00869 4.567708,39.90281 -0.827092,6.81651 -7.074899,7.66911 -11.462361,2.0684 0.646944,18.6234 22.812931,13.74492 27.305281,0.9271"
       id="path4237"
       inkscape:connector-curvature="0"
       sodipodi:nodetypes="cscc" />
    <path
       style="fill:none;fill-rule:evenodd;stroke:#000000;stroke-width:0.68946546;stroke-linecap:butt;stroke-linejoin:miter;stroke-miterlimit:4;stroke-dasharray:none;stroke-opacity:1"
       d="m 99.93787,865.46425 c -4.113356,0.6856 -2.78886,5.99799 -0.872288,7.02086 2.637898,1.40784 5.335428,0.85702 5.469568,-2.0554 0.0884,-1.92037 -1.83816,-5.42535 -4.59728,-4.96546 z"
       id="path4241"
       inkscape:connector-curvature="0"
       sodipodi:nodetypes="ssss" />
    <path
       sodipodi:nodetypes="ssss"
       inkscape:connector-curvature="0"
       id="path4243"
       d="m 99.092657,863.47267 c -5.534554,0.45199 -5.153527,8.01257 -1.799474,10.49236 3.267527,2.41581 8.972977,2.51377 9.189947,-2.63911 0.11106,-2.63766 -2.64143,-8.24109 -7.390473,-7.85325 z"
       style="fill:none;fill-rule:evenodd;stroke:#000000;stroke-width:0.68946546;stroke-linecap:butt;stroke-linejoin:miter;stroke-miterlimit:4;stroke-dasharray:none;stroke-opacity:1" />
    <path
       style="fill:none;fill-rule:evenodd;stroke:#000000;stroke-width:0.68946546;stroke-linecap:butt;stroke-linejoin:miter;stroke-miterlimit:4;stroke-dasharray:none;stroke-opacity:1"
       d="m 50.651909,880.15686 c 4.498632,-0.6315 11.204768,-0.23223 19.967641,1.57832 4.54589,0.93926 8.448188,0.53634 12.452817,0.46536 6.197725,-0.10987 18.790203,0.41055 19.488403,1.09692 0.96195,0.81186 5.24164,10.46527 7.40929,24.37529 1.72983,11.10048 1.38196,26.53008 0.28187,27.30244 -1.23348,0.91065 -9.28383,0.88673 -9.50676,-0.36565 -0.23072,-0.78364 1.71896,-12.61485 -0.37062,-27.01894 -1.204981,-8.30626 -3.806502,-18.34744 -7.938111,-25.03253"
       id="path4249"
       inkscape:connector-curvature="0"
       sodipodi:nodetypes="csscsccsc" />
    <path
       style="fill:none;fill-rule:evenodd;stroke:#000000;stroke-width:0.68946546;stroke-linecap:butt;stroke-linejoin:miter;stroke-miterlimit:4;stroke-dasharray:none;stroke-opacity:1"
       d="m 100.6262,934.70684 c -13.112386,-3.19818 -16.329477,-12.50627 -30.006761,-18.71756 -3.206807,-1.45632 -6.644351,-3.86919 -9.089995,-5.86452 -3.083097,-2.5154 -6.388122,-4.46122 -10.556119,-6.15773 -5.185946,-2.11086 -11.102011,-7.07386 -13.195149,-12.02225 -1.07055,-2.53088 -2.245357,-5.954 0.04887,-9.62758 1.50757,-2.41396 3.32989,-4.37099 8.356927,-7.42838 4.390906,-2.6705 7.593742,-5.72473 10.873784,-8.4791"
       id="path4251"
       inkscape:connector-curvature="0"
       sodipodi:nodetypes="cssssssc" />
    <path
       style="fill:none;fill-rule:evenodd;stroke:#000000;stroke-width:0.68946546;stroke-linecap:butt;stroke-linejoin:miter;stroke-miterlimit:4;stroke-dasharray:none;stroke-opacity:1"
       d="m 80.198144,882.07285 c -1.149614,-2.68647 -3.786503,-7.28955 -7.210722,-10.96442 -4.452758,-4.77869 -9.797887,-8.39303 -10.431685,-8.3396 -0.868343,-0.1157 -4.979453,1.94745 -5.424676,3.24992 -0.2269,0.43773 4.16052,3.01664 8.266374,6.53625 3.281744,2.81317 6.171146,6.41125 7.323456,9.42011"
       id="path4253"
       inkscape:connector-curvature="0"
       sodipodi:nodetypes="csccsc" />
    <path
       style="fill:none;fill-rule:evenodd;stroke:#000000;stroke-width:0.68946546;stroke-linecap:butt;stroke-linejoin:miter;stroke-miterlimit:4;stroke-dasharray:none;stroke-opacity:1"
       d="m 99.453288,863.55077 c 0.264178,0.63095 0.503976,1.2619 0.722102,1.89286 m 1.77872,7.78244 c 0.45471,3.35618 0.60986,6.71237 0.87127,10.06855"
       id="path4257"
       inkscape:connector-curvature="0"
       sodipodi:nodetypes="cccc" />
    <path
       style="fill:none;fill-rule:evenodd;stroke:#000000;stroke-width:0.68946546;stroke-linecap:butt;stroke-linejoin:miter;stroke-miterlimit:4;stroke-dasharray:none;stroke-opacity:1"
       d="M 97.938287,863.84399 C 82.75634,860.22647 71.342933,857.4197 62.653479,862.71996"
       id="path4259"
       inkscape:connector-curvature="0"
       sodipodi:nodetypes="cc" />
    <path
       style="fill:none;fill-rule:evenodd;stroke:#000000;stroke-width:0.68946546;stroke-linecap:butt;stroke-linejoin:miter;stroke-miterlimit:4;stroke-dasharray:none;stroke-opacity:1"
       d="m 116.87167,887.52546 c 0.35473,-2.42069 0.83071,-6.25838 0.75917,-9.34185 -0.0662,-2.85632 -1.55861,-6.43997 -1.15659,-6.72714 0.94849,-0.4478 5.73884,2.84655 6.13386,3.59393 0.48423,0.8055 0.96768,9.13102 -0.0691,13.58088"
       id="path4261"
       inkscape:connector-curvature="0"
       sodipodi:nodetypes="csccc" />
    <path
       style="fill:none;fill-rule:evenodd;stroke:#000000;stroke-width:0.68946546;stroke-linecap:butt;stroke-linejoin:miter;stroke-miterlimit:4;stroke-dasharray:none;stroke-opacity:1"
       d="m 104.74217,866.03102 c 4.78367,1.63949 8.74541,3.64961 11.83015,5.41312 m 6.24001,4.07908 c 1.17064,0.92466 2.12442,1.76744 3.05642,2.60438 1.54793,1.39003 3.04159,3.15726 4.56871,3.94525 1.87165,0.96576 3.26861,2.1097 4.49612,4.10516 1.28756,2.09306 2.87364,3.57074 5.22919,5.42467 2.52711,1.98897 5.34118,4.9247 6.04776,7.60304 0.49673,1.88289 1.65722,2.65352 1.96975,4.21595 0.42932,2.14627 0.41948,5.86338 -3.11014,8.9848 -3.50061,3.09578 -6.08878,4.63049 -9.39949,6.84228 -3.23357,2.16026 -6.09759,5.57388 -9.05392,9.3995 -2.09182,2.70691 -3.9826,3.85727 -6.49671,4.9762"
       id="path4263"
       inkscape:connector-curvature="0"
       sodipodi:nodetypes="cccsssssssssc" />
    <path
       style="fill:none;fill-rule:evenodd;stroke:#000000;stroke-width:0.68946546;stroke-linecap:butt;stroke-linejoin:miter;stroke-miterlimit:4;stroke-dasharray:none;stroke-opacity:1"
       d="m 102.91065,883.72419 c 1.4486,-0.0779 8.52318,0.76641 10.50531,2.07343 0.68327,0.50277 5.14474,8.13358 6.62076,18.54377 1.87701,13.23836 0.67624,28.97739 0.0833,29.76686 -0.80802,1.51747 -7.60487,1.32488 -9.64139,0.76025"
       id="path4265"
       inkscape:connector-curvature="0"
       sodipodi:nodetypes="ccscc" />
    <path
       style="fill:none;fill-rule:evenodd;stroke:#000000;stroke-width:0.68946546;stroke-linecap:butt;stroke-linejoin:miter;stroke-miterlimit:4;stroke-dasharray:none;stroke-opacity:1"
       d="m 113.77247,886.08027 c 4.92917,2.79208 7.08908,1.82894 12.90193,3.76306 4.76684,1.58608 3.97963,2.22249 10.11628,3.61644"
       id="path4267"
       inkscape:connector-curvature="0"
       sodipodi:nodetypes="csc" />
    <ellipse
       style="fill:none;stroke:#000000;stroke-width:0.68946546;stroke-miterlimit:4;stroke-dasharray:none"
       id="path4269"
       cx="96.232773"
       cy="880.17072"
       rx="1.002152"
       ry="0.96759516" />
    <ellipse
       ry="0.96759516"
       rx="1.002152"
       cy="881.0993"
       cx="107.47308"
       id="ellipse4271"
       style="fill:none;stroke:#000000;stroke-width:0.68946546;stroke-miterlimit:4;stroke-dasharray:none" />
    <path
       style="fill:none;fill-rule:evenodd;stroke:#000000;stroke-width:0.68946546;stroke-linecap:butt;stroke-linejoin:miter;stroke-miterlimit:4;stroke-dasharray:none;stroke-opacity:1"
       d="m 97.087241,880.3135 c 3.184179,-0.0291 6.961789,0.25158 9.501199,0.73899"
       id="path4273"
       inkscape:connector-curvature="0"
       sodipodi:nodetypes="cc" />
    <path
       style="fill:none;fill-rule:evenodd;stroke:#000000;stroke-width:0.68946546;stroke-linecap:butt;stroke-linejoin:miter;stroke-miterlimit:4;stroke-dasharray:none;stroke-opacity:1"
       d="m 104.36204,865.27077 c 4.96816,-4.00183 8.16598,-8.00017 10.88544,-13.23531 l -2.66088,0.65657 c -2.02513,4.38456 -5.50516,8.0283 -9.39949,11.68026"
       id="path4275"
       inkscape:connector-curvature="0"
       sodipodi:nodetypes="cccc" />
    <path
       style="fill:none;fill-rule:evenodd;stroke:#000000;stroke-width:0.68946546;stroke-linecap:butt;stroke-linejoin:miter;stroke-miterlimit:4;stroke-dasharray:none;stroke-opacity:1"
       d="m 115.52394,851.86267 c 2.07707,0.63016 3.9933,1.66245 5.7019,3.2138 -3.08081,4.25189 -7.252,8.77535 -12.95887,12.23317"
       id="path4277"
       inkscape:connector-curvature="0"
       sodipodi:nodetypes="ccc" />
    <path
       style="fill:none;fill-rule:evenodd;stroke:#000000;stroke-width:0.68946546;stroke-linecap:butt;stroke-linejoin:miter;stroke-miterlimit:4;stroke-dasharray:none;stroke-opacity:1"
       d="m 88.164104,861.44932 c -5.44776,-4.88766 -12.411385,-13.64304 -13.09741,-21.64983 -6.92767,-0.58686 -13.746141,1.67259 -19.352888,6.20661 6.128613,2.30452 13.470749,8.5093 16.616114,13.87935"
       id="path4279"
       inkscape:connector-curvature="0"
       sodipodi:nodetypes="cccc" />
    <path
       style="fill:none;fill-rule:evenodd;stroke:#000000;stroke-width:0.68946546;stroke-linecap:butt;stroke-linejoin:miter;stroke-miterlimit:4;stroke-dasharray:none;stroke-opacity:1"
       d="m 73.014115,839.70175 c 1.204147,6.79968 4.397551,13.87802 12.462087,21.45434"
       id="path4281"
       inkscape:connector-curvature="0"
       sodipodi:nodetypes="cc" />
    <path
       style="fill:none;fill-rule:evenodd;stroke:#000000;stroke-width:0.68946546;stroke-linecap:butt;stroke-linejoin:miter;stroke-miterlimit:4;stroke-dasharray:none;stroke-opacity:1"
       d="m 84.231079,857.55026 c 7.865898,2.73885 17.274241,2.45794 26.214631,-1.04595 m 7.42323,-3.74803 c 13.8018,-8.6585 24.88146,-25.93492 24.67855,-52.6945"
       id="path4283"
       inkscape:connector-curvature="0"
       sodipodi:nodetypes="cccc" />
    <path
       style="fill:none;fill-rule:evenodd;stroke:#000000;stroke-width:0.68946546;stroke-linecap:butt;stroke-linejoin:miter;stroke-miterlimit:4;stroke-dasharray:none;stroke-opacity:1"
       d="m 153.11358,807.88677 c -1.25694,6.44258 0.77895,21.53936 6.25547,29.42031 -6.16331,-0.96169 -15.53009,-4.77165 -20.23256,-12.80419"
       id="path4285"
       inkscape:connector-curvature="0"
       sodipodi:nodetypes="ccc" />
    <path
       style="fill:none;fill-rule:evenodd;stroke:#000000;stroke-width:0.68946546;stroke-linecap:butt;stroke-linejoin:miter;stroke-miterlimit:4;stroke-dasharray:none;stroke-opacity:1"
       d="m 142.55745,828.99902 c -0.68808,7.31974 0.96386,12.63137 3.65694,17.54118 -5.24976,-1.2035 -10.94363,-3.38064 -13.72435,-8.25571"
       id="path4287"
       inkscape:connector-curvature="0"
       sodipodi:nodetypes="ccc" />
    <path
       style="fill:none;fill-rule:evenodd;stroke:#000000;stroke-width:0.68946546;stroke-linecap:butt;stroke-linejoin:miter;stroke-miterlimit:4;stroke-dasharray:none;stroke-opacity:1"
       d="m 60.405577,827.67279 c 0.360801,5.04426 1.884195,9.19356 5.114431,13.26988"
       id="path4289"
       inkscape:connector-curvature="0"
       sodipodi:nodetypes="cc" />
    <path
       style="fill:none;fill-rule:evenodd;stroke:#000000;stroke-width:0.68946546;stroke-linecap:butt;stroke-linejoin:miter;stroke-miterlimit:4;stroke-dasharray:none;stroke-opacity:1"
       d="m 77.854385,848.53683 c 10.507475,2.03723 22.118501,-4.57069 24.572465,-18.03037 1.64623,-9.02935 6.03661,-29.03006 7.87899,-35.2481 0.6549,-2.2103 1.59205,-4.40357 2.99774,-5.87861"
       id="path4291"
       inkscape:connector-curvature="0"
       sodipodi:nodetypes="cssc" />
    <circle
       cy="808.61987"
       cx="125.89246"
       id="circle4295"
       style="fill:none;stroke:#000000;stroke-width:0.68946546;stroke-miterlimit:4;stroke-dasharray:none"
       r="4.838222" />
    <circle
       style="fill:none;stroke:#000000;stroke-width:0.68946546;stroke-miterlimit:4;stroke-dasharray:none"
       id="circle4297"
       cx="89.434746"
       cy="802.75537"
       r="4.838222" />
    <path
       style="fill:none;fill-rule:evenodd;stroke:#000000;stroke-width:0.68946546;stroke-linecap:butt;stroke-linejoin:miter;stroke-miterlimit:4;stroke-dasharray:none;stroke-opacity:1"
       d="M 109.72082,935.34811 C 73.074046,972.93429 35.675214,952.03207 5.7364566,993.097"
       id="path4299"
       inkscape:connector-curvature="0"
       sodipodi:nodetypes="cc" />
    <path
       style="fill:none;fill-rule:evenodd;stroke:#000000;stroke-width:0.68946546;stroke-linecap:butt;stroke-linejoin:miter;stroke-miterlimit:4;stroke-dasharray:none;stroke-opacity:1"
       d="m 77.13115,924.36319 c -10.992247,0.14827 -24.945049,11.01303 -28.129372,17.41671 -4.18922,8.42452 -7.564716,10.62175 -12.924306,14.23747 -22.10709,14.914 -29.6658343,32.94655 -31.5159525,41.05368 -1.2182999,5.33855 1.7895989,9.47325 3.8703805,10.22885 2.247357,0.8161 2.91618,2.4748 2.707301,4.017 -0.224464,1.6573 -0.152441,3.059 1.785104,3.4128 1.518597,0.2772 2.264621,1.2286 3.144685,2.6263 1.156495,1.8367 3.627192,2.6566 7.429748,3.0756 1.053007,0.116 2.404004,0.798 4.295224,1.299 1.71938,0.4554 2.873644,-0.2892 5.242498,0.2215 -2.601017,-0.7349 -3.329075,-2.3631 -4.976203,-3.3175 -1.049937,-0.6084 -0.465312,-2.7157 -3.732152,-3.5249 -1.850797,-0.4583 -2.392653,-1.2498 -2.073418,-2.2806 0.692296,-2.2356 -0.872847,-4.2407 -2.177089,-5.1145 -2.64523,-1.7723 -1.564076,-3.01 -0.449241,-4.5615 1.355469,-1.8865 0.808002,-3.95258 1.382279,-5.77104 0.902277,-2.85708 1.629474,-6.18587 1.105823,-8.05177 -0.802657,-2.86008 -0.02527,-3.48376 1.48595,-3.42114 4.47456,0.18539 2.133992,-4.57755 18.484503,-18.48451"
       id="path4301"
       inkscape:connector-curvature="0"
       sodipodi:nodetypes="cssssssssscssssssssc" />
    <path
       sodipodi:nodetypes="cc"
       inkscape:connector-curvature="0"
       id="path4303"
       d="M 106.45516,935.64767 C 71.745529,968.61561 36.624732,952.27917 7.8890421,987.84561"
       style="fill:none;fill-rule:evenodd;stroke:#000000;stroke-width:0.68946546;stroke-linecap:butt;stroke-linejoin:miter;stroke-miterlimit:4;stroke-dasharray:none;stroke-opacity:1" />
    <path
       style="fill:none;fill-rule:evenodd;stroke:#000000;stroke-width:0.68946546;stroke-linecap:butt;stroke-linejoin:miter;stroke-miterlimit:4;stroke-dasharray:none;stroke-opacity:1"
       d="m 42.078817,966.91278 c 2.915415,23.07071 30.333508,32.19989 50.825773,12.31548 11.66579,-11.31976 19.63813,-30.45164 24.5332,-44.08158"
       id="path4305"
       inkscape:connector-curvature="0"
       sodipodi:nodetypes="csc" />
    <path
       style="fill:none;fill-rule:evenodd;stroke:#000000;stroke-width:0.68946546;stroke-linecap:butt;stroke-linejoin:miter;stroke-miterlimit:4;stroke-dasharray:none;stroke-opacity:1"
       d="m 53.416873,963.29634 c 4.134004,20.78685 44.189083,19.2065 61.186407,-27.85643"
       id="path4307"
       inkscape:connector-curvature="0"
       sodipodi:nodetypes="cc" />
    <path
       style="fill:none;fill-rule:evenodd;stroke:#000000;stroke-width:0.68946546;stroke-linecap:butt;stroke-linejoin:miter;stroke-miterlimit:4;stroke-dasharray:none;stroke-opacity:1"
       d="m 83.86346,924.83492 c -2.352601,-0.39366 -4.865644,-0.56419 -7.281766,-0.43984 0.205524,-1.36251 0.136491,-3.11746 -0.04887,-5.13145"
       id="path4309"
       inkscape:connector-curvature="0"
       sodipodi:nodetypes="ccc" />
    <path
       style="fill:none;fill-rule:evenodd;stroke:#000000;stroke-width:0.68946546;stroke-linecap:butt;stroke-linejoin:miter;stroke-miterlimit:4;stroke-dasharray:none;stroke-opacity:1"
       d="m 58.263046,988.57003 c -1.254858,1.93241 -3.053584,5.66498 -3.87038,8.22456 -0.319205,1.00028 -0.55453,1.94683 0.02444,2.72755 0.332058,0.44775 0.551404,0.77726 0.288315,1.72366 -0.299197,1.0762 0.168353,2.0759 0.390247,2.8386 0.674749,2.3192 2.848348,5.5704 1.374615,8.9282 -0.957247,2.181 -1.059716,3.6331 -0.28065,5.4147 0.933478,2.1346 0.07031,5.4083 0.414682,6.8422 0.264552,1.1017 0.261814,1.7714 2.260516,1.9142 2.659564,0.1903 5.240868,0.2837 7.700277,-0.5074 0.66239,-0.2131 0.518761,-1.4857 0.836718,-2.5679 0.260191,-0.8855 1.35157,-1.2848 1.224842,-2.2178 -0.224789,-1.655 0.403783,-2.0547 3.121983,-3.2999 1.718131,-0.7872 3.344273,-1.8752 5.520733,-5.347 0.983184,-1.5683 1.15303,-2.659 3.732152,-5.0453 3.297062,-3.0506 5.825789,-3.1014 8.801184,-10.35033 0.585925,-1.42749 0.863946,-3.18767 2.366639,-4.72 3.801799,-3.87672 7.781387,-8.73704 9.359021,-24.25551"
       id="path4311"
       inkscape:connector-curvature="0"
       sodipodi:nodetypes="cssssssssssssssssc" />
    <path
       style="fill:none;fill-rule:evenodd;stroke:#000000;stroke-width:0.68946546;stroke-linecap:butt;stroke-linejoin:miter;stroke-miterlimit:4;stroke-dasharray:none;stroke-opacity:1"
       d="m 57.204368,1026.8775 c -1.345495,0.876 -0.868161,3.0036 0.464276,3.2254 1.823737,0.3036 7.550136,0.7979 9.334349,-1.1973 0.665886,-0.7446 0.439727,-1.958 -0.07331,-2.4436"
       id="path4313"
       inkscape:connector-curvature="0"
       sodipodi:nodetypes="cssc" />
    <path
       style="fill:none;fill-rule:evenodd;stroke:#000000;stroke-width:0.68946546;stroke-linecap:butt;stroke-linejoin:miter;stroke-miterlimit:4;stroke-dasharray:none;stroke-opacity:1"
       d="m 56.742537,1029.6583 c -2.525626,3.3697 -4.801589,7.0234 -5.598225,12.0603 -0.331092,2.0935 -0.33699,5.0452 2.695441,6.1166 5.030098,1.7773 9.718081,1.2012 13.995573,-2.4535 2.326639,-1.9879 2.399356,-3.8899 2.280758,-5.8056 -0.250155,-4.0408 -2.275036,-7.4757 -3.628481,-10.056"
       id="path4315"
       inkscape:connector-curvature="0"
       sodipodi:nodetypes="cssssc" />
    <path
       style="fill:none;fill-rule:evenodd;stroke:#000000;stroke-width:0.68946546;stroke-linecap:butt;stroke-linejoin:miter;stroke-miterlimit:4;stroke-dasharray:none;stroke-opacity:1"
       d="m 51.04064,1044.6214 c 5.928748,3.1107 12.71274,3.3165 19.179115,-4.2159"
       id="path4317"
       inkscape:connector-curvature="0"
       sodipodi:nodetypes="cc" />
    <path
       style="fill:none;fill-rule:evenodd;stroke:#000000;stroke-width:0.68946546;stroke-linecap:butt;stroke-linejoin:miter;stroke-miterlimit:4;stroke-dasharray:none;stroke-opacity:1"
       d="m 117.63192,1020.7771 c 2.0072,-0.1154 1.98517,2.1388 0.68766,2.3516 -2.65855,0.4361 -7.42169,0.8703 -8.48149,0.5672 -0.60655,-0.1733 -1.57281,-2.2969 0.36407,-2.4004 3.15352,-0.1686 5.61369,-0.414 7.42976,-0.5184 z"
       id="path4319"
       inkscape:connector-curvature="0"
       sodipodi:nodetypes="sssss" />
    <path
       style="fill:none;fill-rule:evenodd;stroke:#000000;stroke-width:0.68946546;stroke-linecap:butt;stroke-linejoin:miter;stroke-miterlimit:4;stroke-dasharray:none;stroke-opacity:1"
       d="m 95.783528,988.7285 c -0.0028,1.45993 0.07765,2.99156 0.423062,4.33393 0.445399,1.73082 1.986344,3.32904 2.695452,4.56153 1.623448,2.82174 1.788258,4.74374 4.803408,7.22234 1.22267,1.0051 2.3162,2.6344 2.45355,5.7711 0.15221,3.4759 4.10919,6.3267 3.73216,10.5744"
       id="path4321"
       inkscape:connector-curvature="0"
       sodipodi:nodetypes="cssssc" />
    <path
       style="fill:none;fill-rule:evenodd;stroke:#000000;stroke-width:0.68946546;stroke-linecap:butt;stroke-linejoin:miter;stroke-miterlimit:4;stroke-dasharray:none;stroke-opacity:1"
       d="m 117.49369,935.14496 c -0.19395,9.80611 3.25945,13.75633 4.70629,21.70653 1.44931,7.96374 2.79972,21.06483 5.38434,28.33195 1.20883,3.39882 1.33951,7.44026 0.0859,10.86275 -0.88384,2.41293 -3.02272,4.77231 -3.40335,7.24511 -0.83987,5.4564 -1.65007,6.0086 -2.90279,8.2936 -1.76134,3.2131 -2.85,6.259 -3.08149,9.091"
       id="path4323"
       inkscape:connector-curvature="0"
       sodipodi:nodetypes="csssssc" />
    <path
       style="fill:none;fill-rule:evenodd;stroke:#000000;stroke-width:0.68946546;stroke-linecap:butt;stroke-linejoin:miter;stroke-miterlimit:4;stroke-dasharray:none;stroke-opacity:1"
       d="m 109.5207,1023.7986 c -1.10099,1.5097 -2.18837,7.1552 -0.80637,7.9904 1.34523,0.8129 6.75917,4.4885 8.65016,5.9377 2.83187,2.1705 6.15314,1.904 8.30805,1.9305 2.76957,0.034 6.9762,-1.4386 7.11072,-3.4454 0.21169,-2.7247 -1.75228,-5.3686 -3.8608,-6.4999 -3.4409,-1.7754 -8.8437,-4.0585 -10.31176,-6.5975"
       id="path4325"
       inkscape:connector-curvature="0"
       sodipodi:nodetypes="csssccc" />
    <path
       style="fill:none;fill-rule:evenodd;stroke:#000000;stroke-width:0.68946546;stroke-linecap:butt;stroke-linejoin:miter;stroke-miterlimit:4;stroke-dasharray:none;stroke-opacity:1"
       d="m 108.0858,1029.2781 c 2.01671,2.4001 6.45299,4.6468 9.29655,6.383 1.72509,1.0532 3.37554,2.052 6.52216,2.2671 2.62294,0.1793 7.54368,-0.9509 8.87593,-2.8225"
       id="path4327"
       inkscape:connector-curvature="0"
       sodipodi:nodetypes="cssc" />
    <path
       style="fill:none;fill-rule:evenodd;stroke:#000000;stroke-width:0.68946546;stroke-linecap:butt;stroke-linejoin:miter;stroke-miterlimit:4;stroke-dasharray:none;stroke-opacity:1"
       d="m 121.46774,932.93331 c 0.17152,3.67698 1.26642,8.18888 3.28291,11.61115 1.27229,2.15926 2.79081,4.0482 2.34987,11.26556 -0.33908,5.55028 -2.0043,18.10786 -2.0043,18.10786"
       id="path4329"
       inkscape:connector-curvature="0"
       sodipodi:nodetypes="cssc" />
    <path
       style="fill:none;fill-rule:evenodd;stroke:#000000;stroke-width:0.68946546;stroke-linecap:butt;stroke-linejoin:miter;stroke-miterlimit:4;stroke-dasharray:none;stroke-opacity:1"
       d="m 120.12002,933.83179 c 0.50585,22.34649 5.78063,9.73391 3.87038,34.41875"
       id="path4331"
       inkscape:connector-curvature="0"
       sodipodi:nodetypes="cc" />
    <path
       style="fill:none;fill-rule:evenodd;stroke:#000000;stroke-width:0.68946546;stroke-linecap:butt;stroke-linejoin:miter;stroke-miterlimit:4;stroke-dasharray:none;stroke-opacity:1"
       d="m 126.34027,933.34799 -4.40019,3.39608 m -65.661119,50.67722 -4.443511,3.4295 -2.373588,6.68237 4.973734,-0.6698 m 69.466964,-53.51774 6.8289,-5.35513"
       id="path4333"
       inkscape:connector-curvature="0"
       sodipodi:nodetypes="cccccccc" />
    <path
       style="fill:none;fill-rule:evenodd;stroke:#000000;stroke-width:0.68946546;stroke-linecap:butt;stroke-linejoin:miter;stroke-miterlimit:4;stroke-dasharray:none;stroke-opacity:1"
       d="m 131.10913,928.58752 4.63063,6.21187 -4.04909,3.21135 -5.88654,-0.14171 0.87333,-5.91517 z"
       id="path4335"
       inkscape:connector-curvature="0"
       sodipodi:nodetypes="cccccc" />
    <path
       sodipodi:nodetypes="cccccc"
       inkscape:connector-curvature="0"
       id="path4337"
       d="m 130.61676,931.65218 2.29542,2.76548 -2.00716,1.42966 -2.91797,-0.0631 0.43291,-2.63338 z"
       style="fill:none;fill-rule:evenodd;stroke:#000000;stroke-width:0.68946546;stroke-linecap:butt;stroke-linejoin:miter;stroke-miterlimit:4;stroke-dasharray:none;stroke-opacity:1" />
    <path
       style="fill:none;fill-rule:evenodd;stroke:#000000;stroke-width:0.68946546;stroke-linecap:butt;stroke-linejoin:miter;stroke-miterlimit:4;stroke-dasharray:none;stroke-opacity:1"
       d="m 135.59161,934.77003 4.08542,-1.14132 -4.95274,-5.67393 -3.53352,0.50251"
       id="path4339"
       inkscape:connector-curvature="0"
       sodipodi:nodetypes="cccc" />
    <path
       style="fill:none;fill-rule:evenodd;stroke:#000000;stroke-width:0.68946546;stroke-linecap:butt;stroke-linejoin:miter;stroke-miterlimit:4;stroke-dasharray:none;stroke-opacity:1"
       d="m 140.08801,933.60544 -6.21432,4.58053 -2.2462,-0.13822"
       id="path4341"
       inkscape:connector-curvature="0"
       sodipodi:nodetypes="ccc" />
    <path
       style="fill:none;fill-rule:evenodd;stroke:#000000;stroke-width:0.68946546;stroke-linecap:butt;stroke-linejoin:miter;stroke-miterlimit:4;stroke-dasharray:none;stroke-opacity:1"
       d="m 132.83698,938.22053 -7.9481,6.25481"
       id="path4343"
       inkscape:connector-curvature="0"
       sodipodi:nodetypes="cc" />
    <path
       style="fill:none;fill-rule:evenodd;stroke:#000000;stroke-width:0.68946546;stroke-linecap:butt;stroke-linejoin:miter;stroke-miterlimit:4;stroke-dasharray:none;stroke-opacity:1"
       d="m 152.18502,920.68088 -16.00349,12.663 -3.23437,-4.21128 15.8169,-12.45913"
       id="path4196"
       inkscape:connector-curvature="0"
       sodipodi:nodetypes="cccc" />
    <path
       style="fill:none;fill-rule:evenodd;stroke:#000000;stroke-width:0.68946546;stroke-linecap:butt;stroke-linejoin:miter;stroke-miterlimit:4;stroke-dasharray:none;stroke-opacity:1"
       d="m 136.05761,933.53394 2.19869,-0.64126 14.54787,-11.45417"
       id="path4198"
       inkscape:connector-curvature="0"
       sodipodi:nodetypes="ccc" />
    <path
       style="fill:none;fill-rule:evenodd;stroke:#000000;stroke-width:0.68946546;stroke-linecap:butt;stroke-linejoin:miter;stroke-miterlimit:4;stroke-dasharray:none;stroke-opacity:1"
       d="m 147.88438,915.69605 5.20649,5.97657 2.07528,-1.82254 -5.03371,-6.01113 z"
       id="path4202"
       inkscape:connector-curvature="0"
       sodipodi:nodetypes="ccccc" />
    <path
       style="fill:none;fill-rule:evenodd;stroke:#000000;stroke-width:0.68946546;stroke-linecap:butt;stroke-linejoin:miter;stroke-miterlimit:4;stroke-dasharray:none;stroke-opacity:1"
       d="m 150.11546,913.78875 1.71455,-0.0245 5.18182,6.0803 -2.22944,1.8856 -1.69083,-0.0279"
       id="path4204"
       inkscape:connector-curvature="0"
       sodipodi:nodetypes="ccccc" />
    <path
       style="fill:none;fill-rule:evenodd;stroke:#000000;stroke-width:0.68946546;stroke-linecap:butt;stroke-linejoin:miter;stroke-miterlimit:4;stroke-dasharray:none;stroke-opacity:1"
       d="m 155.0386,919.82784 1.9216,-0.005"
       id="path4206"
       inkscape:connector-curvature="0"
       sodipodi:nodetypes="cc" />
    <path
       style="fill:none;fill-rule:evenodd;stroke:#000000;stroke-width:0.68946546;stroke-linecap:butt;stroke-linejoin:miter;stroke-miterlimit:4;stroke-dasharray:none;stroke-opacity:1"
       d="m 52.18102,937.28749 c -2.52909,-1.62163 -5.307405,-8.27631 -2.833672,-13.33899 -2.048516,-3.48861 -1.465022,-7.11566 1.174939,-10.85089 -1.126753,-3.04759 2.426218,-4.78008 3.732152,-1.10582 3.596466,-0.42105 7.607372,2.90725 8.362785,6.63494 3.516101,0.40462 6.45211,3.16816 6.980506,7.11873"
       id="path4208"
       inkscape:connector-curvature="0"
       sodipodi:nodetypes="cccccc" />
    <path
       style="fill:none;fill-rule:evenodd;stroke:#000000;stroke-width:0.34473273px;stroke-linecap:butt;stroke-linejoin:miter;stroke-opacity:1"
       d="m 48.86355,924.57053 c -2.49983,3.82793 -8.708414,2.88908 -6.289366,7.04962 2.174084,-4.22438 2.132165,-1.14673 2.03886,-0.2419 0.279664,-1.78126 2.509716,-3.82258 4.043163,-5.77101"
       id="path4210"
       inkscape:connector-curvature="0"
       sodipodi:nodetypes="cccc" />
    <path
       style="fill:none;fill-rule:evenodd;stroke:#000000;stroke-width:0.34473273px;stroke-linecap:butt;stroke-linejoin:miter;stroke-opacity:1"
       d="m 48.310636,928.12989 c -1.582071,2.12551 -1.886804,4.4335 -2.211642,6.73861 1.013669,-1.90989 1.958226,-3.88702 2.971895,-1.96974"
       id="path4212"
       inkscape:connector-curvature="0"
       sodipodi:nodetypes="ccc" />
  </g>
</svg>
