<?xml version="1.0" encoding="UTF-8" standalone="no"?>
<!-- Created with Inkscape (http://www.inkscape.org/) -->

<svg
   xmlns:dc="http://purl.org/dc/elements/1.1/"
   xmlns:cc="http://creativecommons.org/ns#"
   xmlns:rdf="http://www.w3.org/1999/02/22-rdf-syntax-ns#"
   xmlns:svg="http://www.w3.org/2000/svg"
   xmlns="http://www.w3.org/2000/svg"
   xmlns:sodipodi="http://sodipodi.sourceforge.net/DTD/sodipodi-0.dtd"
   xmlns:inkscape="http://www.inkscape.org/namespaces/inkscape"
   width="240"
   height="356.59091"
   viewBox="0 0 240 356.59092"
   id="svg2"
   version="1.1"
   inkscape:version="0.91 r13725"
   sodipodi:docname="sin.svg"
   inkscape:export-filename="C:\Users\David\Documents\My Games\skeny\sin - night hunter\sin.png"
   inkscape:export-xdpi="72"
   inkscape:export-ydpi="72">
  <defs
     id="defs4" />
  <sodipodi:namedview
     id="base"
     pagecolor="#ffffff"
     bordercolor="#666666"
     borderopacity="1.0"
     inkscape:pageopacity="0.0"
     inkscape:pageshadow="2"
     inkscape:zoom="1.2674716"
     inkscape:cx="111.45709"
     inkscape:cy="170.50441"
     inkscape:document-units="px"
     inkscape:current-layer="layer5"
     showgrid="false"
     showborder="false"
     inkscape:window-width="1366"
     inkscape:window-height="705"
     inkscape:window-x="-8"
     inkscape:window-y="-8"
     inkscape:window-maximized="1"
     showguides="false"
     inkscape:snap-others="false"
     inkscape:snap-grids="false"
     inkscape:snap-to-guides="false"
     units="px"
     fit-margin-top="0"
     fit-margin-left="0"
     fit-margin-right="0"
     fit-margin-bottom="0" />
  <metadata
     id="metadata7">
    <rdf:RDF>
      <cc:Work
         rdf:about="">
        <dc:format>image/svg+xml</dc:format>
        <dc:type
           rdf:resource="http://purl.org/dc/dcmitype/StillImage" />
        <dc:title></dc:title>
      </cc:Work>
    </rdf:RDF>
  </metadata>
  <g
     inkscape:groupmode="layer"
     id="layer2"
     inkscape:label="pozadi bile"
     sodipodi:insensitive="true"
     transform="translate(0,-695.77129)" />
  <g
     inkscape:groupmode="layer"
     id="layer1"
     inkscape:label="pozadi jina barva"
     style="display:inline"
     transform="translate(0,-695.77129)">
    <path
       style="display:inline;opacity:1;fill:#ff0000;fill-rule:evenodd;stroke:none;stroke-width:1px;stroke-linecap:butt;stroke-linejoin:miter;stroke-opacity:1"
       d="m 78.40909,708.72584 23.86364,-12.95455 82.5,8.86364 44.31818,49.77273 10.90909,36.81818 -15,2.04545 -10.90909,16.36364 -0.68182,32.04545 -21.81818,6.81818 2.72727,29.31818 35.45455,33.4091 -21.81818,24.54545 28.63636,53.18182 -32.72727,30.68179 -15,-2.0454 10.90909,-22.50003 -26.59091,-21.81818 -8.86364,12.27273 2.04546,27.95458 9.54545,19.7727 -0.68182,12.2727 -25.22727,6.8182 -23.86363,-29.3182 -14.31819,4.0909 -35.454544,-21.1363 -9.545454,17.0454 -25.909091,3.4091 -7.5,-14.3182 L 45.681818,987.58947 29.999999,978.72584 20.454545,948.04402 8.8636381,949.40765 0,944.63493 l 5.454546,-10.9091 16.363634,-4.77272 35.454549,21.81818 20.454545,-26.59091 26.590906,-53.86364 6.81818,-29.99999 -39.545451,-34.77273 17.045454,-39.54546 z"
       id="path4233"
       inkscape:connector-curvature="0" />
  </g>
  <g
     inkscape:groupmode="layer"
     id="layer3"
     inkscape:label="vypln barva"
     sodipodi:insensitive="true"
     transform="translate(0,-695.77129)" />
  <g
     inkscape:groupmode="layer"
     id="layer4"
     inkscape:label="stiny"
     sodipodi:insensitive="true"
     transform="translate(0,-695.77129)" />
  <g
     inkscape:groupmode="layer"
     id="layer5"
     inkscape:label="obrys"
     style="display:inline;opacity:1"
     transform="translate(0,-695.77129)">
    <path
       style="fill:none;fill-rule:evenodd;stroke:#000000;stroke-width:0.73281974;stroke-linecap:butt;stroke-linejoin:miter;stroke-miterlimit:4;stroke-dasharray:none;stroke-opacity:1"
       d="m 219.48028,760.62013 c 11.43946,-14.03305 -11.52913,-4.09201 -17.95409,-1.64884 -13.63497,5.18487 -25.31583,15.95673 -36.45778,29.12958 -21.82365,25.80158 -29.89868,29.92883 -36.41198,33.61811 -3.5045,1.98503 -2.92353,3.10531 -1.87785,4.67172"
       id="path4294"
       inkscape:connector-curvature="0"
       sodipodi:nodetypes="csssc" />
    <path
       style="fill:none;fill-rule:evenodd;stroke:#000000;stroke-width:0.73281974;stroke-linecap:butt;stroke-linejoin:miter;stroke-miterlimit:4;stroke-dasharray:none;stroke-opacity:1"
       d="m 126.73278,823.91743 c 2.24343,1.94138 5.39005,3.25984 8.65643,1.55725 1.19856,-0.62475 1.82166,-0.3818 4.21372,0.91602 6.04098,3.27755 18.47057,8.28127 25.85984,12.09804"
       id="path4296"
       inkscape:connector-curvature="0"
       sodipodi:nodetypes="cssc" />
    <path
       style="fill:none;fill-rule:evenodd;stroke:#000000;stroke-width:0.73281974;stroke-linecap:butt;stroke-linejoin:miter;stroke-miterlimit:4;stroke-dasharray:none;stroke-opacity:1"
       d="m 222.27613,753.98835 c -8.43778,-12.09861 -19.67726,-23.82026 -31.47954,-34.26477 -7.22542,-6.39419 -16.4064,-9.93189 -27.72273,-12.50114 -10.3071,-2.34011 -28.00155,-5.05776 -42.55568,-5.50568 -6.65568,-0.20484 -13.3967,-0.74872 -19.95,1.29545 -6.252633,1.95039 -11.422966,4.96332 -16.063635,8.03182 -2.319253,1.53354 -1.009833,2.09923 1.295457,5.7 14.660848,22.89965 6.945413,64.89515 -4.145455,79.8 -4.14739,5.57361 -2.709282,5.34326 -0.777273,8.03182 3.562882,4.95805 9.75053,10.08748 14.815329,15.17904 4.267016,4.28956 12.941857,9.47959 19.384667,10.21186 22.30838,2.53554 35.09545,4.16784 50.5875,8.87387"
       id="path4298"
       inkscape:connector-curvature="0"
       sodipodi:nodetypes="cssssssssssc" />
    <ellipse
       style="fill:none;stroke:#000000;stroke-width:0.73281974;stroke-miterlimit:4;stroke-dasharray:none"
       id="path4300"
       cx="167.90808"
       cy="838.98602"
       rx="2.0152543"
       ry="2.0610557" />
    <path
       style="fill:none;fill-rule:evenodd;stroke:#000000;stroke-width:0.73281974;stroke-linecap:butt;stroke-linejoin:miter;stroke-miterlimit:4;stroke-dasharray:none;stroke-opacity:1"
       d="m 168.99961,840.64179 c -17.53355,15.49808 -34.66348,22.70376 -54.9587,23.78405 -2.45992,0.13094 -5.82367,0.0489 -3.43296,-3.10909 0.56575,-0.7473 0.9222,-1.38852 0.32387,-1.94318 -1.23093,-1.14107 -0.76302,-1.70765 0.76616,-2.56963 1.68396,-0.94923 2.57343,-2.65749 3.36116,-5.5255 0.4743,-1.72688 2.25074,-2.85183 1.34597,-5.66907 -0.97467,-3.0349 0.58532,-5.72399 1.97557,-7.67557 1.82337,-2.55958 4.47451,-4.35803 7.99943,-5.2142 2.24854,-0.54615 5.4511,-0.6443 7.93466,-0.45341"
       id="path4302"
       inkscape:connector-curvature="0"
       sodipodi:nodetypes="cssssssssc" />
    <path
       style="fill:none;fill-rule:evenodd;stroke:#000000;stroke-width:0.73281974;stroke-linecap:butt;stroke-linejoin:miter;stroke-miterlimit:4;stroke-dasharray:none;stroke-opacity:1"
       d="m 135.06383,860.81883 c 2.77024,7.89343 15.33223,12.40924 24.8277,5.77884 7.50266,-5.23887 6.38997,-16.63738 2.42881,-20.23763"
       id="path4304"
       inkscape:connector-curvature="0"
       sodipodi:nodetypes="csc" />
    <path
       style="fill:none;fill-rule:evenodd;stroke:#000000;stroke-width:0.73281974;stroke-linecap:butt;stroke-linejoin:miter;stroke-miterlimit:4;stroke-dasharray:none;stroke-opacity:1"
       d="m 163.05316,863.21489 c 2.15146,7.47665 18.07935,8.03028 21.93093,-1.97731 2.0247,-5.26078 1.46421,-13.71414 -5.24817,-18.78311 -2.29773,-1.73517 -6.50221,-4.16091 -10.38442,-4.79667"
       id="path4306"
       inkscape:connector-curvature="0"
       sodipodi:nodetypes="cssc" />
    <path
       style="fill:none;fill-rule:evenodd;stroke:#000000;stroke-width:0.73281974;stroke-linecap:butt;stroke-linejoin:miter;stroke-miterlimit:4;stroke-dasharray:none;stroke-opacity:1"
       d="m 144.9375,856.91221 c 3.63202,4.50903 8.15689,7.13838 18.20114,5.95909 -2.18895,-5.42171 -6.41365,-8.44861 -9.84546,-10.36364"
       id="path4308"
       inkscape:connector-curvature="0"
       sodipodi:nodetypes="ccc" />
    <path
       style="fill:none;fill-rule:evenodd;stroke:#000000;stroke-width:0.73281974;stroke-linecap:butt;stroke-linejoin:miter;stroke-miterlimit:4;stroke-dasharray:none;stroke-opacity:1"
       d="m 163.59204,863.19516 c 3.42795,1.0928 23.63229,0.91391 16.64659,-20.40341"
       id="path4310"
       inkscape:connector-curvature="0"
       sodipodi:nodetypes="cc" />
    <path
       style="fill:none;fill-rule:evenodd;stroke:#000000;stroke-width:0.73281974;stroke-linecap:butt;stroke-linejoin:miter;stroke-miterlimit:4;stroke-dasharray:none;stroke-opacity:1"
       d="m 181.59886,848.68607 c -7.42876,1.93529 -14.89403,8.56318 -17.87727,14.25"
       id="path4312"
       inkscape:connector-curvature="0"
       sodipodi:nodetypes="cc" />
    <path
       style="fill:none;fill-rule:evenodd;stroke:#000000;stroke-width:0.73281974;stroke-linecap:butt;stroke-linejoin:miter;stroke-miterlimit:4;stroke-dasharray:none;stroke-opacity:1"
       d="m 127.51364,862.8713 c -1.50333,4.88758 -2.50447,8.41263 -3.62728,11.27045 -1.08376,2.75842 -2.05431,5.58001 -3.62727,8.16137 -3.38347,5.55256 -7.24517,11.02532 -9.71591,14.63863 -1.80084,2.63364 -2.86298,3.92702 -3.36818,7.25455 -0.25593,1.6857 0.44101,2.47003 0.49753,4.36795 0.0829,2.78306 -0.23875,5.92265 -0.23844,8.06841 2.6e-4,1.78097 -0.67786,3.41665 -1.39261,4.9875 -0.61058,1.3419 -2.18139,3.88649 -3.75682,5.34375 -2.07485,1.91923 -3.735056,0.14388 -2.655682,-1.65171 1.526402,-2.53923 3.139152,-5.57064 2.169882,-9.65113 -0.26298,-1.10714 -0.69375,-2.35078 -2.641309,-2.44239"
       id="path4314"
       inkscape:connector-curvature="0"
       sodipodi:nodetypes="cssssssssssc" />
    <path
       style="fill:none;fill-rule:evenodd;stroke:#000000;stroke-width:0.73281974;stroke-linecap:butt;stroke-linejoin:miter;stroke-miterlimit:4;stroke-dasharray:none;stroke-opacity:1"
       d="m 102.04262,919.23171 -10.38394,7.08523 -5.912108,13.10538 -7.730666,-2.59032 6.929276,-14.50459 14.463979,-9.1491 m 8.246589,-5.54001 3.14743,-2.06767 3.65017,5.24802 -6.96988,4.72418"
       id="path4321"
       inkscape:connector-curvature="0"
       sodipodi:nodetypes="cccccccccc" />
    <path
       style="fill:none;fill-rule:evenodd;stroke:#000000;stroke-width:0.73281974;stroke-linecap:butt;stroke-linejoin:miter;stroke-miterlimit:4;stroke-dasharray:none;stroke-opacity:1"
       d="m 88.756109,940.66512 5.529118,-12.11428 5.904493,-4.1582 m 6.79,-4.7818 11.05405,-7.89001 -3.61823,-0.97015"
       id="path4323"
       inkscape:connector-curvature="0"
       sodipodi:nodetypes="cccccc" />
    <path
       style="fill:none;fill-rule:evenodd;stroke:#000000;stroke-width:0.73281974;stroke-linecap:butt;stroke-linejoin:miter;stroke-miterlimit:4;stroke-dasharray:none;stroke-opacity:1"
       d="M 83.681951,941.52081 53.084396,1010.8323"
       id="path4341"
       inkscape:connector-curvature="0"
       sodipodi:nodetypes="cc" />
    <path
       style="fill:none;fill-rule:evenodd;stroke:#000000;stroke-width:0.73281974;stroke-linecap:butt;stroke-linejoin:miter;stroke-miterlimit:4;stroke-dasharray:none;stroke-opacity:1"
       d="m 74.153386,938.69875 -29.11103,67.88515"
       id="path4343"
       inkscape:connector-curvature="0"
       sodipodi:nodetypes="cc" />
    <path
       style="fill:none;fill-rule:evenodd;stroke:#000000;stroke-width:0.73281974;stroke-linecap:butt;stroke-linejoin:miter;stroke-miterlimit:4;stroke-dasharray:none;stroke-opacity:1"
       d="m 89.891283,940.9566 -29.066478,67.9978"
       id="path4345"
       inkscape:connector-curvature="0"
       sodipodi:nodetypes="cc" />
    <path
       style="fill:none;fill-rule:evenodd;stroke:#000000;stroke-width:0.73281974;stroke-linecap:butt;stroke-linejoin:miter;stroke-miterlimit:4;stroke-dasharray:none;stroke-opacity:1"
       d="m 58.76375,1008.4964 c 0.569954,-1.3238 2.460999,-0.4998 2.015254,0.6641 l -2.061056,5.3817 c -2.528946,6.6033 -11.971878,6.5414 -8.793837,-3.0229 l 3.297689,-1.0534 c -1.000874,3.1671 3.019474,3.5335 4.122111,1.3282 z"
       id="path4347"
       inkscape:connector-curvature="0"
       sodipodi:nodetypes="sssccss" />
    <path
       style="fill:none;fill-rule:evenodd;stroke:#000000;stroke-width:0.73281974;stroke-linecap:butt;stroke-linejoin:miter;stroke-miterlimit:4;stroke-dasharray:none;stroke-opacity:1"
       d="m 50.038274,1011.5744 -7.15183,-3.041 2.274229,-2.1375 8.280471,3.7117"
       id="path4349"
       inkscape:connector-curvature="0"
       sodipodi:nodetypes="cccc" />
    <path
       style="fill:none;fill-rule:evenodd;stroke:#000000;stroke-width:0.73281974;stroke-linecap:butt;stroke-linejoin:miter;stroke-miterlimit:4;stroke-dasharray:none;stroke-opacity:1"
       d="m 42.612787,1008.6909 c -2.346247,4.2888 0.0332,9.4084 9.780681,10.4284"
       id="path4351"
       inkscape:connector-curvature="0"
       sodipodi:nodetypes="cc" />
    <path
       style="fill:none;fill-rule:evenodd;stroke:#000000;stroke-width:0.73281974;stroke-linecap:butt;stroke-linejoin:miter;stroke-miterlimit:4;stroke-dasharray:none;stroke-opacity:1"
       d="m 55.615911,971.49516 14.812501,-33.92727 8.065905,2.72044 4.857957,1.44887"
       id="path4353"
       inkscape:connector-curvature="0"
       sodipodi:nodetypes="cc" />
    <path
       style="fill:none;fill-rule:evenodd;stroke:#000000;stroke-width:0.73281974;stroke-linecap:butt;stroke-linejoin:miter;stroke-miterlimit:4;stroke-dasharray:none;stroke-opacity:1"
       d="m 107.69318,908.40652 c -3.14634,0.5767 -7.18416,2.83626 -8.258521,4.82557"
       id="path4355"
       inkscape:connector-curvature="0"
       sodipodi:nodetypes="cc" />
    <path
       style="fill:none;fill-rule:evenodd;stroke:#000000;stroke-width:0.73281974;stroke-linecap:butt;stroke-linejoin:miter;stroke-miterlimit:4;stroke-dasharray:none;stroke-opacity:1"
       d="m 112.7634,864.49733 c -1.55731,6.80908 -5.5219,10.91918 -7.4656,17.58767 -2.40509,8.25147 -2.84925,11.43111 -6.300004,16.72925 -2.832839,4.34944 -6.163234,8.40531 -7.577766,12.65224 1.898747,0.51379 4.335845,1.87277 5.770955,3.20609"
       id="path4357"
       inkscape:connector-curvature="0"
       sodipodi:nodetypes="csscc" />
    <path
       style="fill:none;fill-rule:evenodd;stroke:#000000;stroke-width:0.73281974;stroke-linecap:butt;stroke-linejoin:miter;stroke-miterlimit:4;stroke-dasharray:none;stroke-opacity:1"
       d="m 106.59204,878.41675 c 4.68637,2.63071 9.13047,3.68663 13.47273,4.08069"
       id="path4359"
       inkscape:connector-curvature="0"
       sodipodi:nodetypes="cc" />
    <path
       style="fill:none;fill-rule:evenodd;stroke:#000000;stroke-width:0.73281974;stroke-linecap:butt;stroke-linejoin:miter;stroke-miterlimit:4;stroke-dasharray:none;stroke-opacity:1"
       d="m 91.603235,911.51575 c 0,0 -3.940357,4.21997 -5.404546,5.7904 -1.02365,1.09793 -2.282323,3.67598 -1.701934,5.83981"
       id="path4361"
       inkscape:connector-curvature="0"
       sodipodi:nodetypes="csc" />
    <path
       style="fill:none;fill-rule:evenodd;stroke:#000000;stroke-width:0.73281974;stroke-linecap:butt;stroke-linejoin:miter;stroke-miterlimit:4;stroke-dasharray:none;stroke-opacity:1"
       d="m 201.52754,934.43486 c 10.94781,15.59554 21.43565,31.47789 27.33874,52.97075 0.54872,3.87916 -17.98588,23.51759 -31.3706,27.31979 10.96405,-29.38611 7.04802,-54.34845 -1.13449,-75.94871 M 189.113,922.2074 c -3.7284,-7.64084 -7.66922,-14.827 -11.22024,-21.6187 -0.26184,5.89639 1.15599,14.0492 5.67935,22.71741 -10.68683,1.08318 -10.4243,5.87197 -18.70722,6.7027 -8.93771,0.89641 -10.98864,-6.04295 -25.99478,-1.38975 -3.26823,-9.67021 -3.45769,-20.62375 -2.74808,-31.32805 -30.93637,41.82195 -27.48258,84.15574 -18.5495,123.02209 -22.764447,-8.84 -41.447383,-32.17541 -40.549803,-36.182 6.966745,-35.45252 31.706763,-68.3839 56.534443,-93.61867 12.03932,10.74044 26.58379,17.9609 44.15239,6.77858 4.40864,8.63756 9.41547,16.43395 14.57954,23.95829"
       id="path4363"
       inkscape:connector-curvature="0"
       sodipodi:nodetypes="cccccccsccccccc" />
    <path
       style="fill:none;fill-rule:evenodd;stroke:#000000;stroke-width:0.73281974;stroke-linecap:butt;stroke-linejoin:miter;stroke-miterlimit:4;stroke-dasharray:none;stroke-opacity:1"
       d="m 126.76875,911.58039 c 1.20457,13.90761 7.2137,26.38495 11.5351,35.09761 1.22893,3.18796 -3.4363,9.69136 -2.99416,20.97622 0.29073,7.42023 6.6379,20.04839 8.39713,27.22389 2.56495,10.46189 4.87421,19.79839 1.62392,30.96139 -1.58276,5.4359 -1.47388,10.5029 -0.74719,14.5692 0.63838,2.2355 6.10778,5.0604 11.78388,5.3566 6.19843,0.3235 10.9992,-2.2985 11.82348,-3.8622 0.91985,-1.8894 0.78409,-7.6426 0.4534,-10.817 -0.81438,-7.8177 -6.41135,-13.3032 -7.82964,-22.59 -2.67931,-17.54377 -4.096,-32.96031 -3.76467,-46.13389 0.29027,-11.54095 -0.0337,-23.83365 -1.425,-34.07046"
       id="path4365"
       inkscape:connector-curvature="0"
       sodipodi:nodetypes="ccssscscsssc" />
    <path
       style="fill:none;fill-rule:evenodd;stroke:#000000;stroke-width:0.73281974;stroke-linecap:butt;stroke-linejoin:miter;stroke-miterlimit:4;stroke-dasharray:none;stroke-opacity:1"
       d="m 143.95405,1035.1527 c 8.09074,6.7808 16.12551,8.2506 25.00747,0.8703"
       id="path4367"
       inkscape:connector-curvature="0"
       sodipodi:nodetypes="cc" />
    <path
       style="fill:none;fill-rule:evenodd;stroke:#000000;stroke-width:0.73281974;stroke-linecap:butt;stroke-linejoin:miter;stroke-miterlimit:4;stroke-dasharray:none;stroke-opacity:1"
       d="m 181.55686,923.67252 c 2.47067,5.55722 4.96541,13.96372 4.58012,20.79376 -0.35962,6.37521 -3.08455,10.58644 -7.32819,14.01518 -8.70942,7.03695 -15.49835,15.21576 -21.15931,23.38737"
       id="path4369"
       inkscape:connector-curvature="0"
       sodipodi:nodetypes="cssc" />
    <path
       style="fill:none;fill-rule:evenodd;stroke:#000000;stroke-width:0.73281974;stroke-linecap:butt;stroke-linejoin:miter;stroke-miterlimit:4;stroke-dasharray:none;stroke-opacity:1"
       d="m 155.72496,928.61906 c 3.67427,6.3528 7.00747,11.86008 12.09153,16.39684 -4.80716,0.66745 -8.20554,4.34157 -10.65949,8.1896"
       id="path4371"
       inkscape:connector-curvature="0"
       sodipodi:nodetypes="ccc" />
    <path
       style="fill:none;fill-rule:evenodd;stroke:#000000;stroke-width:0.73281974;stroke-linecap:butt;stroke-linejoin:miter;stroke-miterlimit:4;stroke-dasharray:none;stroke-opacity:1"
       d="m 140.42735,984.81717 c -3.10871,5.05546 -9.79956,6.40187 -14.9312,12.87014 -3.68968,4.65069 -3.79337,6.51239 -4.94654,9.16029 -0.10424,1.4091 3.23646,6.742 5.67936,9.6182 l 4.03051,-4.3053 c 0.29297,2.9954 -0.11633,6.3955 -1.28244,9.5267 3.59404,4.1821 8.8806,13.1972 15.20601,16.58"
       id="path4373"
       inkscape:connector-curvature="0"
       sodipodi:nodetypes="csccccc" />
    <path
       style="fill:none;fill-rule:evenodd;stroke:#000000;stroke-width:0.73281974;stroke-linecap:butt;stroke-linejoin:miter;stroke-miterlimit:4;stroke-dasharray:none;stroke-opacity:1"
       d="m 124.33977,998.89402 c 2.15104,4.04148 4.34688,8.06068 7.51364,11.59428 0.27894,3.2502 0.17381,5.709 -0.45341,8.2262 1.46373,2.4702 8.46832,11.2826 12.63068,14.1204"
       id="path4375"
       inkscape:connector-curvature="0"
       sodipodi:nodetypes="cccc" />
    <path
       style="fill:none;fill-rule:evenodd;stroke:#000000;stroke-width:0.73281974;stroke-linecap:butt;stroke-linejoin:miter;stroke-miterlimit:4;stroke-dasharray:none;stroke-opacity:1"
       d="m 190.12989,921.50173 6.6827,11.43794 6.55316,-0.46452 -7.03991,-11.32277 z"
       id="path4377"
       inkscape:connector-curvature="0"
       sodipodi:nodetypes="ccccc" />
    <path
       style="fill:none;fill-rule:evenodd;stroke:#000000;stroke-width:0.73281974;stroke-linecap:butt;stroke-linejoin:miter;stroke-miterlimit:4;stroke-dasharray:none;stroke-opacity:1"
       d="m 190.03964,921.40227 -7.28124,5.36799 m -19.07503,14.0628 -6.74648,4.97375 m -21.4344,15.80221 -1.90022,1.40091 c -4.43991,3.54543 -2.78369,12.83985 3.72401,13.48888 m 48.85587,-35.12562 10.6383,-8.42566"
       id="path4379"
       inkscape:connector-curvature="0"
       sodipodi:nodetypes="ccccccccc" />
    <path
       style="fill:none;fill-rule:evenodd;stroke:#000000;stroke-width:0.73281974;stroke-linecap:butt;stroke-linejoin:miter;stroke-miterlimit:4;stroke-dasharray:none;stroke-opacity:1"
       d="m 203.74755,932.48926 -17.96033,14.87057"
       id="path4381"
       inkscape:connector-curvature="0"
       sodipodi:nodetypes="cc" />
    <path
       style="fill:none;fill-rule:evenodd;stroke:#000000;stroke-width:0.73281974;stroke-linecap:butt;stroke-linejoin:miter;stroke-miterlimit:4;stroke-dasharray:none;stroke-opacity:1"
       d="M 195.39545,926.08948 219.75,904.9088"
       id="path4383"
       inkscape:connector-curvature="0" />
    <path
       style="fill:none;fill-rule:evenodd;stroke:#000000;stroke-width:0.73281974;stroke-linecap:butt;stroke-linejoin:miter;stroke-miterlimit:4;stroke-dasharray:none;stroke-opacity:1"
       d="m 218.75483,905.77374 4.03949,0.23619 -8.03182,7.125 -3.66197,-0.73933 -0.0301,-3.47089 8.22614,-7.25455 z"
       id="path4385"
       inkscape:connector-curvature="0"
       sodipodi:nodetypes="ccccccc" />
    <path
       inkscape:connector-curvature="0"
       id="path4387"
       d="M 199.13667,930.94774 213.25959,920.2771"
       style="fill:none;fill-rule:evenodd;stroke:#000000;stroke-width:0.73281974;stroke-linecap:butt;stroke-linejoin:miter;stroke-miterlimit:4;stroke-dasharray:none;stroke-opacity:1"
       sodipodi:nodetypes="cc" />
    <path
       sodipodi:nodetypes="ccccccc"
       inkscape:connector-curvature="0"
       id="path4389"
       d="m 212.20735,921.07162 4.01371,0.51318 -8.50239,6.55631 -3.60251,-0.98919 0.20847,-3.46476 8.70514,-6.6722 z"
       style="fill:none;fill-rule:evenodd;stroke:#000000;stroke-width:0.73281974;stroke-linecap:butt;stroke-linejoin:miter;stroke-miterlimit:4;stroke-dasharray:none;stroke-opacity:1" />
    <path
       style="fill:none;fill-rule:evenodd;stroke:#000000;stroke-width:0.73281974;stroke-linecap:butt;stroke-linejoin:miter;stroke-miterlimit:4;stroke-dasharray:none;stroke-opacity:1"
       d="m 136.33667,863.38508 c 2.38827,5.52008 4.97454,11.22813 6.526,14.95994 0.69248,1.66565 -0.19395,2.61766 -2.11892,4.96876 -2.36208,2.88496 -3.74381,3.71121 -7.09498,7.29025"
       id="path4391"
       inkscape:connector-curvature="0"
       sodipodi:nodetypes="cssc" />
    <path
       style="fill:none;fill-rule:evenodd;stroke:#000000;stroke-width:0.73281974;stroke-linecap:butt;stroke-linejoin:miter;stroke-miterlimit:4;stroke-dasharray:none;stroke-opacity:1"
       d="m 175.20946,868.57038 c -1.2954,4.1413 -2.7744,8.51275 -3.26626,11.7048 -0.44937,2.91633 0.4105,4.54236 1.27783,6.70269 1.53867,3.83245 2.9898,7.20149 4.41982,10.26734"
       id="path4393"
       inkscape:connector-curvature="0"
       sodipodi:nodetypes="cssc" />
    <path
       style="fill:none;fill-rule:evenodd;stroke:#000000;stroke-width:0.73281974;stroke-linecap:butt;stroke-linejoin:miter;stroke-miterlimit:4;stroke-dasharray:none;stroke-opacity:1"
       d="m 162.36614,893.99332 c -0.66353,1.43041 -0.39945,2.32764 0.27481,3.20609"
       id="path4395"
       inkscape:connector-curvature="0"
       sodipodi:nodetypes="cc" />
    <path
       style="fill:none;fill-rule:evenodd;stroke:#000000;stroke-width:0.73281974;stroke-linecap:butt;stroke-linejoin:miter;stroke-miterlimit:4;stroke-dasharray:none;stroke-opacity:1"
       d="m 111.51891,980.71593 c 3.22361,-7.30399 11.1125,-13.32341 21.11395,-16.85337 m 40.1064,-0.0925 c 12.32656,4.35618 23.60045,13.26495 30.61898,28.23793"
       id="path4397"
       inkscape:connector-curvature="0"
       sodipodi:nodetypes="cccc" />
    <path
       style="fill:none;fill-rule:evenodd;stroke:#000000;stroke-width:0.73281974;stroke-linecap:butt;stroke-linejoin:miter;stroke-miterlimit:4;stroke-dasharray:none;stroke-opacity:1"
       d="m 173.82613,872.8463 c 1.55932,3.9531 2.94662,6.31329 5.89432,11.65909 1.93361,3.50669 4.04373,5.54963 7.77273,8.42045 3.86746,2.97741 7.70519,6.54506 12.56591,9.58637"
       id="path4399"
       inkscape:connector-curvature="0"
       sodipodi:nodetypes="cssc" />
    <path
       style="fill:none;fill-rule:evenodd;stroke:#000000;stroke-width:0.73281974;stroke-linecap:butt;stroke-linejoin:miter;stroke-miterlimit:4;stroke-dasharray:none;stroke-opacity:1"
       d="m 183.73636,863.51902 c 1.86518,5.19311 3.6836,10.77113 6.08864,15.48069 5.535,5.84096 11.29658,11.57486 16.00672,18.82989 2.20799,1.71281 3.36939,3.75388 4.33191,7.7917 0.51627,2.16575 0.53817,4.42113 0.45341,6.73636 -0.0968,1.58285 -2.13025,-1.26914 -4.21023,-1.16591 -1.09934,0.14214 -1.71826,0.69991 -2.46136,1.58693 -0.83026,1.30182 -1.83253,-2.27743 -3.38662,-3.4388 -1.50933,-1.12791 -3.13215,0.79595 -3.09065,0.16778 -0.0832,-2.54273 0.13657,-4.99378 1.61932,-7.70795"
       id="path4401"
       inkscape:connector-curvature="0"
       sodipodi:nodetypes="cccscccscc" />
    <path
       style="fill:none;fill-rule:evenodd;stroke:#000000;stroke-width:0.73281974;stroke-linecap:butt;stroke-linejoin:miter;stroke-miterlimit:4;stroke-dasharray:none;stroke-opacity:1"
       d="m 183.0225,889.04679 c 1.43865,-2.5185 5.35207,-6.61562 9.16024,-7.60301"
       id="path4403"
       inkscape:connector-curvature="0"
       sodipodi:nodetypes="cc" />
    <path
       style="fill:none;fill-rule:evenodd;stroke:#000000;stroke-width:0.73281974;stroke-linecap:butt;stroke-linejoin:miter;stroke-miterlimit:4;stroke-dasharray:none;stroke-opacity:1"
       d="m 202.82467,912.24574 c 0.1766,1.77366 -0.0719,2.79735 -0.26167,3.75424 0.56065,0.71379 1.1895,1.57903 1.45508,2.55622 0.5396,1.01899 0.43138,3.81409 -1.57812,2.23628 -1.10863,-1.00477 -2.33691,-2.56894 -2.94946,-4.11929 -0.9618,-2.43433 -1.7407,-4.28022 -1.67555,-7.17731"
       id="path4405"
       inkscape:connector-curvature="0"
       sodipodi:nodetypes="ccccsc" />
    <path
       style="fill:none;fill-rule:evenodd;stroke:#000000;stroke-width:0.73281974;stroke-linecap:butt;stroke-linejoin:miter;stroke-miterlimit:4;stroke-dasharray:none;stroke-opacity:1"
       d="m 206.94971,911.23586 c 0.4873,2.1612 0.65644,4.38075 0.31735,6.43114 -0.21605,1.30645 -0.44971,2.33899 -1.07144,3.14687 -0.61926,0.80468 -1.35126,1.83061 -2.02407,2.00184 -2.13323,0.54293 -2.10337,-1.26924 -1.57851,-2.11241 0.62187,-0.99903 1.24003,-1.79411 2.09804,-2.88548 -1.10235,-2.47677 -0.97055,-3.74212 -0.87482,-4.91415"
       id="path4407"
       inkscape:connector-curvature="0"
       sodipodi:nodetypes="csssscc" />
    <path
       style="fill:none;fill-rule:evenodd;stroke:#000000;stroke-width:0.73281974;stroke-linecap:butt;stroke-linejoin:miter;stroke-miterlimit:4;stroke-dasharray:none;stroke-opacity:1"
       d="m 210.35795,913.16732 c -0.52242,2.64171 -2.43242,5.77299 -4.14545,7.48125"
       id="path4409"
       inkscape:connector-curvature="0"
       sodipodi:nodetypes="cc" />
    <path
       style="fill:none;fill-rule:evenodd;stroke:#000000;stroke-width:0.73281974;stroke-linecap:butt;stroke-linejoin:miter;stroke-miterlimit:4;stroke-dasharray:none;stroke-opacity:1"
       d="m 210.94091,755.34858 c 14.47999,15.2725 16.00505,33.00948 8.80909,40.93636 -5.39255,5.94027 -8.88407,8.20597 -14.25,11.01136 4.21969,-6.83347 8.55386,-20.13923 0.38863,-27.59318 -7.02225,-6.41055 -9.23131,-10.35347 -11.14091,-17.48864"
       id="path4411"
       inkscape:connector-curvature="0"
       sodipodi:nodetypes="cscsc" />
    <path
       style="fill:none;fill-rule:evenodd;stroke:#000000;stroke-width:0.73281974;stroke-linecap:butt;stroke-linejoin:miter;stroke-miterlimit:4;stroke-dasharray:none;stroke-opacity:1"
       d="m 213.01363,757.4213 c 7.03659,2.46422 22.97871,10.17109 18.65455,30.96136 -1.704,-5.08986 -3.60807,-10.08993 -8.55,-11.65909"
       id="path4413"
       inkscape:connector-curvature="0"
       sodipodi:nodetypes="ccc" />
    <path
       style="fill:none;fill-rule:evenodd;stroke:#000000;stroke-width:0.73281974;stroke-linecap:butt;stroke-linejoin:miter;stroke-miterlimit:4;stroke-dasharray:none;stroke-opacity:1"
       d="m 137.99854,815.88325 c 5.47199,4.22556 10.17804,7.66314 16.14044,10.17247 6.39632,2.69196 15.11771,4.40128 22.51389,-1.33609 3.41782,-2.65127 5.9507,-5.7169 13.70894,-13.04358 3.13154,-2.95736 5.84486,-7.52918 6.7119,-11.5454 0.54193,-2.51031 0.98437,-5.96582 1.04097,-10.28091 0.0548,-4.17793 2.42638,-9.49514 5.06036,-12.74116"
       id="path4415"
       inkscape:connector-curvature="0"
       sodipodi:nodetypes="csssssc" />
    <path
       style="fill:none;fill-rule:evenodd;stroke:#000000;stroke-width:0.73281974;stroke-linecap:butt;stroke-linejoin:miter;stroke-miterlimit:4;stroke-dasharray:none;stroke-opacity:1"
       d="m 180.36818,786.95767 c -0.27233,4.54733 1.24798,7.94975 3.49773,10.10454 -0.29519,2.6261 -2.10177,4.12297 -3.69205,5.11705"
       id="path4417"
       inkscape:connector-curvature="0"
       sodipodi:nodetypes="ccc" />
    <path
       style="fill:none;fill-rule:evenodd;stroke:#000000;stroke-width:0.73281974;stroke-linecap:butt;stroke-linejoin:miter;stroke-miterlimit:4;stroke-dasharray:none;stroke-opacity:1"
       d="m 181.08068,792.91675 c -6.99849,3.63436 -14.4848,4.24425 -22.34659,2.52614"
       id="path4419"
       inkscape:connector-curvature="0"
       sodipodi:nodetypes="cc" />
    <path
       style="fill:none;fill-rule:evenodd;stroke:#000000;stroke-width:0.73281974;stroke-linecap:butt;stroke-linejoin:miter;stroke-miterlimit:4;stroke-dasharray:none;stroke-opacity:1"
       d="m 182.76477,795.8963 c 3.32539,2.07017 8.11634,4.59979 14.57386,2.07273"
       id="path4421"
       inkscape:connector-curvature="0"
       sodipodi:nodetypes="cc" />
    <path
       style="fill:none;fill-rule:evenodd;stroke:#000000;stroke-width:0.73281974;stroke-linecap:butt;stroke-linejoin:miter;stroke-miterlimit:4;stroke-dasharray:none;stroke-opacity:1"
       d="m 190.7171,811.4595 c 0.36336,9.89459 1.68305,25.40258 16.94646,27.84715 -19.16009,7.52079 -26.90199,-3.03091 -32.06086,-13.92358"
       id="path4423"
       inkscape:connector-curvature="0"
       sodipodi:nodetypes="ccc" />
    <path
       style="fill:none;fill-rule:evenodd;stroke:#000000;stroke-width:0.73281974;stroke-linecap:butt;stroke-linejoin:miter;stroke-miterlimit:4;stroke-dasharray:none;stroke-opacity:1"
       d="m 208.57958,800.83362 c -6.26466,1.58561 -11.11089,5.44074 -16.21363,8.88543"
       id="path4425"
       inkscape:connector-curvature="0"
       sodipodi:nodetypes="cc" />
    <path
       style="fill:none;fill-rule:evenodd;stroke:#000000;stroke-width:0.73281974;stroke-linecap:butt;stroke-linejoin:miter;stroke-miterlimit:4;stroke-dasharray:none;stroke-opacity:1"
       d="m 142.19463,818.94867 c 0.004,2.72022 -0.18329,7.17202 -1.45453,7.92687"
       id="path4427"
       inkscape:connector-curvature="0"
       sodipodi:nodetypes="cc" />
    <path
       style="fill:none;fill-rule:evenodd;stroke:#000000;stroke-width:0.73281974;stroke-linecap:butt;stroke-linejoin:miter;stroke-miterlimit:4;stroke-dasharray:none;stroke-opacity:1"
       d="m 160.1422,827.94143 c 0.0779,2.51214 -1.31779,6.45993 6.27858,8.94426"
       id="path4429"
       inkscape:connector-curvature="0"
       sodipodi:nodetypes="cc" />
    <path
       style="fill:none;fill-rule:evenodd;stroke:#000000;stroke-width:0.73281974;stroke-linecap:butt;stroke-linejoin:miter;stroke-miterlimit:4;stroke-dasharray:none;stroke-opacity:1"
       d="m 179.61774,832.32866 c -1.96187,-0.67812 -4.27669,-0.9475 -6.24176,-0.44095 -3.6902,0.95126 -6.16787,3.57193 -7.2578,6.04609"
       id="path4431"
       inkscape:connector-curvature="0"
       sodipodi:nodetypes="csc" />
    <path
       style="fill:none;fill-rule:evenodd;stroke:#000000;stroke-width:0.73281974;stroke-linecap:butt;stroke-linejoin:miter;stroke-miterlimit:4;stroke-dasharray:none;stroke-opacity:1"
       d="m 207.58844,801.23775 c -2.1168,2.48477 -3.67683,5.36582 -4.16117,6.70628 -0.72826,2.01554 0.0762,3.73338 0.92253,4.66364 2.15588,2.36977 4.67041,4.86078 5.87535,6.88948 1.94877,3.28104 3.27612,7.79574 -0.42007,10.80458 -3.70804,3.01849 -7.3629,4.5897 -10.94056,5.28161 m -18.08996,-1.43081 c -1.32193,-0.26295 -2.62385,-0.50528 -3.90411,-0.68805 -2.40094,-0.34276 -3.87093,-0.40813 -6.37781,0.98271 -1.379,0.76507 -2.42644,1.89959 -3.1183,2.61448"
       id="path4433"
       inkscape:connector-curvature="0"
       sodipodi:nodetypes="cssssccssc" />
    <path
       style="fill:none;fill-rule:evenodd;stroke:#000000;stroke-width:0.73281974;stroke-linecap:butt;stroke-linejoin:miter;stroke-miterlimit:4;stroke-dasharray:none;stroke-opacity:1"
       d="m 202.97386,802.95653 c -0.71882,1.45813 -1.83539,2.77589 -2.33182,4.92272 -0.37011,1.60058 -0.99971,4.23879 2.33182,6.99546 3.03391,2.51041 4.28179,4.63115 5.18182,7.25454 1.32233,3.85431 -1.27838,7.11097 -4.9875,8.29091 -2.36978,0.75388 -4.91986,1.3331 -7.51571,1.73549"
       id="path4435"
       inkscape:connector-curvature="0"
       sodipodi:nodetypes="cssssc" />
    <path
       style="fill:none;fill-rule:evenodd;stroke:#000000;stroke-width:0.73281974;stroke-linecap:butt;stroke-linejoin:miter;stroke-miterlimit:4;stroke-dasharray:none;stroke-opacity:1"
       d="m 211.46506,803.8107 c -1.69264,1.81969 -2.84537,4.17708 -3.41842,5.3666 -0.44454,0.92274 -0.18165,1.89422 0.31269,3.02114 2.01536,4.59421 4.06328,6.73394 3.74695,14.00906"
       id="path4437"
       inkscape:connector-curvature="0"
       sodipodi:nodetypes="cssc" />
    <path
       style="fill:none;fill-rule:evenodd;stroke:#000000;stroke-width:0.73281974;stroke-linecap:butt;stroke-linejoin:miter;stroke-miterlimit:4;stroke-dasharray:none;stroke-opacity:1"
       d="m 181.93519,783.25641 c 2.39693,-2.50853 5.92774,-6.51183 7.30685,-6.98625 0.95798,-0.58144 6.90594,-0.82934 10.149,-0.35855 l 1.74887,-1.91175 c -4.47585,-0.24799 -10.94305,-0.0896 -12.43637,0.70925 -1.61425,0.94043 -5.28398,5.43512 -7.71311,8.65137 z"
       id="path4439"
       inkscape:connector-curvature="0"
       sodipodi:nodetypes="ccccccc" />
    <path
       style="fill:none;fill-rule:evenodd;stroke:#000000;stroke-width:0.73281974;stroke-linecap:butt;stroke-linejoin:miter;stroke-miterlimit:4;stroke-dasharray:none;stroke-opacity:1"
       d="m 183.2057,785.62761 c 8.62888,1.78396 13.7823,-0.50293 14.9312,-9.89307"
       id="path4441"
       inkscape:connector-curvature="0"
       sodipodi:nodetypes="cc" />
    <path
       style="fill:none;fill-rule:evenodd;stroke:#000000;stroke-width:0.73281974;stroke-linecap:butt;stroke-linejoin:miter;stroke-miterlimit:4;stroke-dasharray:none;stroke-opacity:1"
       d="m 186.41179,778.48261 c -1.87481,4.75674 0.12068,7.76841 3.43509,7.59745"
       id="path4443"
       inkscape:connector-curvature="0"
       sodipodi:nodetypes="cc" />
    <ellipse
       style="fill:none;stroke:#000000;stroke-width:0.73281974;stroke-miterlimit:4;stroke-dasharray:none"
       id="path4445"
       cx="191.99954"
       cy="779.87952"
       rx="2.4514048"
       ry="2.4743056" />
    <ellipse
       style="fill:none;stroke:#000000;stroke-width:0.73281974;stroke-miterlimit:4;stroke-dasharray:none"
       id="path4447"
       cx="188.72475"
       cy="780.13147"
       rx="1.5801426"
       ry="0.82442224" />
    <path
       style="fill:none;fill-rule:evenodd;stroke:#000000;stroke-width:0.73281974;stroke-linecap:butt;stroke-linejoin:miter;stroke-miterlimit:4;stroke-dasharray:none;stroke-opacity:1"
       d="m 198.00803,773.68195 c -5.02216,-4.72962 -13.90056,-3.61247 -16.99212,5.37344"
       id="path4449"
       inkscape:connector-curvature="0"
       sodipodi:nodetypes="cc" />
    <path
       style="fill:none;fill-rule:evenodd;stroke:#000000;stroke-width:0.73281974;stroke-linecap:butt;stroke-linejoin:miter;stroke-miterlimit:4;stroke-dasharray:none;stroke-opacity:1"
       d="m 195.39545,764.41675 c -5.24326,1.74491 -8.3711,3.76952 -11.27045,6.60682 -1.66406,1.67538 -3.06105,-0.4383 -3.82159,-1.68409 3.42457,-2.238 9.78887,-6.11985 15.09204,-4.92273 z"
       id="path4451"
       inkscape:connector-curvature="0"
       sodipodi:nodetypes="cccc" />
    <path
       style="fill:none;fill-rule:evenodd;stroke:#000000;stroke-width:0.73281974;stroke-linecap:butt;stroke-linejoin:miter;stroke-miterlimit:4;stroke-dasharray:none;stroke-opacity:1"
       d="m 59.084358,1013.3513 c 2.514151,0.5046 6.241188,0.389 7.465601,-1.9236 l 4.496381,-10.2216 c -1.426375,-0.4789 -1.720203,-1.57652 -1.358996,-2.64464 l 9.679102,-23.25198 c -1.155144,-0.5809 -1.482836,-2.4073 -0.862364,-4.00368 l 10.351079,-24.18305 -0.641218,-2.29006"
       id="path4453"
       inkscape:connector-curvature="0"
       sodipodi:nodetypes="cccccccc" />
    <path
       style="fill:none;fill-rule:evenodd;stroke:#000000;stroke-width:0.73281974;stroke-linecap:butt;stroke-linejoin:miter;stroke-miterlimit:4;stroke-dasharray:none;stroke-opacity:1"
       d="m 127.05098,911.11093 c 2.77833,-1.53358 5.62269,-2.35982 8.85892,-2.71192"
       id="path4208"
       inkscape:connector-curvature="0"
       sodipodi:nodetypes="cc" />
    <path
       style="fill:none;fill-rule:evenodd;stroke:#000000;stroke-width:0.73281974;stroke-linecap:butt;stroke-linejoin:miter;stroke-miterlimit:4;stroke-dasharray:none;stroke-opacity:1"
       d="m 73.51089,983.89188 4.729897,1.94309 c 9.758594,15.70773 8.490548,15.85843 25.849313,11.75592 10.48866,-2.47886 23.80049,-5.85382 30.61451,-3.01324 9.5292,3.97246 6.60562,12.14565 5.06224,13.49935 0.22902,-3.6491 -0.0927,-8.474 -8.62821,-10.7771 -10.21732,-2.75688 -21.44729,3.7568 -31.990257,6.1969 -15.418853,3.5686 -16.574517,-2.9649 -19.405257,-7.35227 -2.104021,-3.26099 -3.054268,-5.61673 -8.316541,-7.11124 z"
       id="path4209"
       inkscape:connector-curvature="0"
       sodipodi:nodetypes="ccsscssscc" />
    <path
       sodipodi:nodetypes="csscsssc"
       inkscape:connector-curvature="0"
       id="path4211"
       d="m 58.407412,975.93852 c -14.123301,1.61555 -14.869334,-0.28393 -21.176845,-13.07491 -4.76663,-9.66624 -5.743669,-20.56738 -12.135488,-24.26123 -7.067691,-4.08443 -15.4543552,0.24231 -18.5910289,3.31679 4.0405849,-0.78583 11.9817059,-2.82868 16.0204549,0.26713 8.399096,6.43812 8.369076,18.5955 13.271201,28.24315 5.736252,11.28926 12.800235,10.93891 17.987841,10.34689 0.919985,-0.10499 1.758481,-0.22811 2.563004,-0.31232"
       style="fill:none;fill-rule:evenodd;stroke:#000000;stroke-width:0.73281974;stroke-linecap:butt;stroke-linejoin:miter;stroke-miterlimit:4;stroke-dasharray:none;stroke-opacity:1" />
    <path
       style="fill:none;fill-rule:evenodd;stroke:#000000;stroke-width:0.73281974;stroke-linecap:butt;stroke-linejoin:miter;stroke-miterlimit:4;stroke-dasharray:none;stroke-opacity:1"
       d="m 16.02273,937.26277 -1.406252,3.1534"
       id="path4213"
       inkscape:connector-curvature="0"
       sodipodi:nodetypes="cc" />
    <path
       style="fill:none;fill-rule:evenodd;stroke:#000000;stroke-width:0.73281974;stroke-linecap:butt;stroke-linejoin:miter;stroke-miterlimit:4;stroke-dasharray:none;stroke-opacity:1"
       d="m 26.889205,939.99004 -2.386362,4.00568"
       id="path4215"
       inkscape:connector-curvature="0"
       sodipodi:nodetypes="cc" />
    <path
       style="fill:none;fill-rule:evenodd;stroke:#000000;stroke-width:0.73281974;stroke-linecap:butt;stroke-linejoin:miter;stroke-miterlimit:4;stroke-dasharray:none;stroke-opacity:1"
       d="M 20.369315,938.28549 136.32102,996.83663"
       id="path4217"
       inkscape:connector-curvature="0"
       sodipodi:nodetypes="cc" />
    <path
       style="fill:none;fill-rule:evenodd;stroke:#000000;stroke-width:0.73281974;stroke-linecap:butt;stroke-linejoin:miter;stroke-miterlimit:4;stroke-dasharray:none;stroke-opacity:1"
       d="m 128.01137,996.70879 1.74715,-3.02557"
       id="path4219"
       inkscape:connector-curvature="0"
       sodipodi:nodetypes="cc" />
    <path
       style="fill:none;fill-rule:evenodd;stroke:#000000;stroke-width:0.73281974;stroke-linecap:butt;stroke-linejoin:miter;stroke-miterlimit:4;stroke-dasharray:none;stroke-opacity:1"
       d="m 137.72727,996.19743 -1.78977,2.8125"
       id="path4221"
       inkscape:connector-curvature="0"
       sodipodi:nodetypes="cc" />
    <path
       style="fill:none;fill-rule:evenodd;stroke:#000000;stroke-width:0.73281974;stroke-linecap:butt;stroke-linejoin:miter;stroke-miterlimit:4;stroke-dasharray:none;stroke-opacity:1"
       d="m 83.366898,941.84525 2.678232,-2.1535 4.112845,1.4239"
       id="path4223"
       inkscape:connector-curvature="0"
       sodipodi:nodetypes="ccc" />
    <path
       style="fill:none;fill-rule:evenodd;stroke:#000000;stroke-width:0.73281974;stroke-linecap:butt;stroke-linejoin:miter;stroke-miterlimit:4;stroke-dasharray:none;stroke-opacity:1"
       d="m 77.953188,936.73287 -3.745196,1.91119 9.444716,3.1732"
       id="path4225"
       inkscape:connector-curvature="0"
       sodipodi:nodetypes="ccc" />
    <path
       style="fill:none;fill-rule:evenodd;stroke:#000000;stroke-width:0.69617873;stroke-linecap:butt;stroke-linejoin:miter;stroke-miterlimit:4;stroke-dasharray:none;stroke-opacity:1"
       d="m 118.52351,911.7437 -4.24866,-5.78542 -3.40496,-0.54238"
       id="path4227"
       inkscape:connector-curvature="0"
       sodipodi:nodetypes="ccc" />
    <path
       style="fill:none;fill-rule:evenodd;stroke:#000000;stroke-width:0.73281974;stroke-linecap:butt;stroke-linejoin:miter;stroke-miterlimit:4;stroke-dasharray:none;stroke-opacity:1"
       d="m 55.466757,971.20097 8.977679,3.13377 4.897845,-0.0913"
       id="path4229"
       inkscape:connector-curvature="0"
       sodipodi:nodetypes="ccc" />
    <path
       style="fill:none;fill-rule:evenodd;stroke:#000000;stroke-width:0.73281974;stroke-linecap:butt;stroke-linejoin:miter;stroke-miterlimit:4;stroke-dasharray:none;stroke-opacity:1"
       d="m 64.261363,974.46447 14.744319,-34.0909"
       id="path4231"
       inkscape:connector-curvature="0" />
  </g>
</svg>
