<?xml version="1.0" encoding="UTF-8" standalone="no"?>
<!-- Created with Inkscape (http://www.inkscape.org/) -->

<svg
   xmlns:dc="http://purl.org/dc/elements/1.1/"
   xmlns:cc="http://creativecommons.org/ns#"
   xmlns:rdf="http://www.w3.org/1999/02/22-rdf-syntax-ns#"
   xmlns:svg="http://www.w3.org/2000/svg"
   xmlns="http://www.w3.org/2000/svg"
   xmlns:sodipodi="http://sodipodi.sourceforge.net/DTD/sodipodi-0.dtd"
   xmlns:inkscape="http://www.inkscape.org/namespaces/inkscape"
   width="48"
   height="48.007637"
   viewBox="0 0 48.000002 48.007639"
   id="svg4242"
   version="1.1"
   inkscape:version="0.91 r13725"
   sodipodi:docname="facebook-icon.svg">
  <defs
     id="defs4244" />
  <sodipodi:namedview
     id="base"
     pagecolor="#ffffff"
     bordercolor="#666666"
     borderopacity="1.0"
     inkscape:pageopacity="0.0"
     inkscape:pageshadow="2"
     inkscape:zoom="3.959798"
     inkscape:cx="28.42328"
     inkscape:cy="27.818076"
     inkscape:document-units="px"
     inkscape:current-layer="layer1"
     showgrid="false"
     fit-margin-top="0"
     fit-margin-left="0"
     fit-margin-right="0"
     fit-margin-bottom="0"
     inkscape:window-width="1366"
     inkscape:window-height="705"
     inkscape:window-x="-8"
     inkscape:window-y="-8"
     inkscape:window-maximized="1"
     units="px" />
  <metadata
     id="metadata4247">
    <rdf:RDF>
      <cc:Work
         rdf:about="">
        <dc:format>image/svg+xml</dc:format>
        <dc:type
           rdf:resource="http://purl.org/dc/dcmitype/StillImage" />
        <dc:title></dc:title>
      </cc:Work>
    </rdf:RDF>
  </metadata>
  <g
     inkscape:label="Vrstva 1"
     inkscape:groupmode="layer"
     id="layer1"
     style="display:inline;opacity:1"
     transform="translate(-357.49116,-656.26081)">
    <path
       inkscape:connector-curvature="0"
       id="path4194"
       style="fill:#49629d;fill-opacity:1;fill-rule:nonzero;stroke:none"
       d="m 402.84201,704.26117 c 1.46288,0 2.64915,-1.18627 2.64915,-2.64915 l 0,-42.70188 c 0,-1.46342 -1.18627,-2.64933 -2.64915,-2.64933 l -42.7017,0 c -1.46342,0 -2.64915,1.18591 -2.64915,2.64933 l 0,42.70188 c 0,1.46288 1.18573,2.64915 2.64915,2.64915 l 42.7017,0 z" />
    <path
       inkscape:connector-curvature="0"
       id="path4198"
       style="fill:#ffffff;fill-opacity:1;fill-rule:nonzero;stroke:none"
       d="m 390.48629,704.26845 0,-18.58812 6.23945,0 0.93412,-7.24425 -7.17357,0 0,-4.62514 c 0,-2.09738 0.58235,-3.52662 3.59012,-3.52662 l 3.83614,-0.002 0,-6.47918 c -0.66364,-0.0881 -2.94068,-0.28543 -5.58984,-0.28543 -5.53084,0 -9.31717,3.37591 -9.31717,9.57579 l 0,5.34237 -6.25527,0 0,7.24425 6.25527,0 0,18.58812 7.48075,0 z" />
  </g>
</svg>
