<?xml version="1.0" encoding="UTF-8" standalone="no"?>
<svg
   xmlns:dc="http://purl.org/dc/elements/1.1/"
   xmlns:cc="http://creativecommons.org/ns#"
   xmlns:rdf="http://www.w3.org/1999/02/22-rdf-syntax-ns#"
   xmlns:svg="http://www.w3.org/2000/svg"
   xmlns="http://www.w3.org/2000/svg"
   xmlns:sodipodi="http://sodipodi.sourceforge.net/DTD/sodipodi-0.dtd"
   xmlns:inkscape="http://www.inkscape.org/namespaces/inkscape"
   enable-background="new 0 0 32 32"
   height="48"
   id="Layer_1"
   version="1.0"
   viewBox="0 0 48 48"
   width="48"
   xml:space="preserve"
   inkscape:version="0.91 r13725"
   sodipodi:docname="google-plus-icon.svg"><metadata
     id="metadata29"><rdf:RDF><cc:Work
         rdf:about=""><dc:format>image/svg+xml</dc:format><dc:type
           rdf:resource="http://purl.org/dc/dcmitype/StillImage" /><dc:title></dc:title></cc:Work></rdf:RDF></metadata><defs
     id="defs27" /><sodipodi:namedview
     pagecolor="#ffffff"
     bordercolor="#666666"
     borderopacity="1"
     objecttolerance="10"
     gridtolerance="10"
     guidetolerance="10"
     inkscape:pageopacity="0"
     inkscape:pageshadow="2"
     inkscape:window-width="1366"
     inkscape:window-height="705"
     id="namedview25"
     showgrid="false"
     fit-margin-top="0"
     fit-margin-left="0"
     fit-margin-right="0"
     fit-margin-bottom="0"
     inkscape:zoom="7.375"
     inkscape:cx="26.440678"
     inkscape:cy="22.101695"
     inkscape:window-x="-8"
     inkscape:window-y="-8"
     inkscape:window-maximized="1"
     inkscape:current-layer="Layer_1" /><g
     id="g3"
     transform="scale(1.5,1.5)"><path
       d="m 32,30 c 0,1.104 -0.896,2 -2,2 L 2,32 C 0.896,32 0,31.104 0,30 L 0,2 C 0,0.896 0.896,0 2,0 l 28,0 c 1.104,0 2,0.896 2,2 l 0,28 z"
       id="path5"
       inkscape:connector-curvature="0"
       style="clip-rule:evenodd;fill:#e02f2f;fill-rule:evenodd" /><g
       id="g7"><path
         d="m 19,6 c 0,0 -4.592,0 -6.164,0 -2.82,0 -5.475,1.979 -5.475,4.453 0,2.528 1.922,4.494 4.791,4.494 0.2,0 0.394,-0.045 0.584,-0.059 -0.188,0.355 -0.318,0.737 -0.318,1.154 0,0.703 0.377,1.264 0.854,1.729 -0.358,0 -0.709,0.005 -1.09,0.005 C 8.689,17.777 6,20 6,22.307 c 0,2.272 2.948,3.695 6.441,3.695 3.983,0 6.183,-2.262 6.183,-4.534 0,-1.821 -0.538,-2.913 -2.199,-4.091 -0.569,-0.401 -1.656,-1.38 -1.656,-1.956 0,-0.674 0.192,-1.006 1.208,-1.8 1.039,-0.812 1.776,-1.781 1.776,-3.111 C 17.753,8.929 17.073,7 15.75,7 L 18,7 19,6 Z m -2.069,15.074 c 0.048,0.212 0.077,0.429 0.077,0.649 0,1.836 -1.185,3.271 -4.58,3.271 -2.415,0 -4.158,-1.528 -4.158,-3.364 0,-1.799 2.163,-3.298 4.579,-3.271 0.562,0.006 1.088,0.097 1.564,0.249 1.311,0.913 2.251,1.428 2.518,2.466 z M 13.063,14.225 C 11.442,14.178 9.901,12.412 9.622,10.285 9.343,8.155 10.43,6.526 12.05,6.574 c 1.62,0.05 3.162,1.758 3.441,3.886 0.28,2.128 -0.807,3.813 -2.428,3.765 z"
         id="path9"
         inkscape:connector-curvature="0"
         style="fill:#ffffff" /><polygon
         points="19,13.993 19,15.993 22,15.993 22,18.993 24,18.993 24,15.993 27,15.993 27,13.993 24,13.993 24,10.993 22,10.993 22,13.993 "
         id="polygon11"
         style="fill:#ffffff" /></g></g><g
     id="g13"
     transform="translate(0,16)" /><g
     id="g15"
     transform="translate(0,16)" /><g
     id="g17"
     transform="translate(0,16)" /><g
     id="g19"
     transform="translate(0,16)" /><g
     id="g21"
     transform="translate(0,16)" /><g
     id="g23"
     transform="translate(0,16)" /></svg>