<?xml version="1.0" encoding="UTF-8" standalone="no"?>
<!-- Created with Inkscape (http://www.inkscape.org/) -->

<svg
   xmlns:dc="http://purl.org/dc/elements/1.1/"
   xmlns:cc="http://creativecommons.org/ns#"
   xmlns:rdf="http://www.w3.org/1999/02/22-rdf-syntax-ns#"
   xmlns:svg="http://www.w3.org/2000/svg"
   xmlns="http://www.w3.org/2000/svg"
   xmlns:sodipodi="http://sodipodi.sourceforge.net/DTD/sodipodi-0.dtd"
   xmlns:inkscape="http://www.inkscape.org/namespaces/inkscape"
   width="210mm"
   height="297mm"
   viewBox="0 0 744.09448819 1052.3622047"
   id="svg2"
   version="1.1"
   inkscape:version="0.91 r13725"
   sodipodi:docname="heroscreen.svg"
   inkscape:export-filename="C:\Users\David\Documents\My Games\skeny\heroscreen\heroscreen.png"
   inkscape:export-xdpi="72"
   inkscape:export-ydpi="72">
  <defs
     id="defs4" />
  <sodipodi:namedview
     id="base"
     pagecolor="#ffffff"
     bordercolor="#666666"
     borderopacity="1.0"
     inkscape:pageopacity="0.0"
     inkscape:pageshadow="2"
     inkscape:zoom="1.2469726"
     inkscape:cx="246.06617"
     inkscape:cy="690.73524"
     inkscape:document-units="px"
     inkscape:current-layer="layer5"
     showgrid="false"
     showborder="false"
     inkscape:window-width="1366"
     inkscape:window-height="705"
     inkscape:window-x="-8"
     inkscape:window-y="-8"
     inkscape:window-maximized="1"
     showguides="false"
     inkscape:snap-others="false"
     inkscape:snap-grids="false"
     inkscape:snap-to-guides="false"
     inkscape:snap-bbox="false"
     inkscape:bbox-paths="false"
     inkscape:bbox-nodes="false"
     inkscape:snap-bbox-edge-midpoints="false"
     inkscape:snap-bbox-midpoints="false"
     inkscape:snap-nodes="true" />
  <metadata
     id="metadata7">
    <rdf:RDF>
      <cc:Work
         rdf:about="">
        <dc:format>image/svg+xml</dc:format>
        <dc:type
           rdf:resource="http://purl.org/dc/dcmitype/StillImage" />
        <dc:title />
      </cc:Work>
    </rdf:RDF>
  </metadata>
  <g
     inkscape:groupmode="layer"
     id="layer2"
     inkscape:label="pozadi bile"
     sodipodi:insensitive="true" />
  <g
     inkscape:groupmode="layer"
     id="layer3"
     inkscape:label="vypln barva"
     sodipodi:insensitive="true" />
  <g
     inkscape:groupmode="layer"
     id="layer4"
     inkscape:label="stiny"
     sodipodi:insensitive="true" />
  <g
     inkscape:groupmode="layer"
     id="layer5"
     inkscape:label="obrys"
     style="display:inline;opacity:1">
    <path
       inkscape:connector-curvature="0"
       id="path4257"
       d="m 465.21513,212.32769 27.46652,0.20049 1.32137,259.16581 -208.96117,0"
       style="fill:#800080;fill-rule:evenodd;stroke:#000000;stroke-width:2;stroke-linecap:butt;stroke-linejoin:miter;stroke-miterlimit:4;stroke-dasharray:none;stroke-opacity:1" />
    <path
       style="fill:#800080;fill-rule:evenodd;stroke:#000000;stroke-width:2;stroke-linecap:butt;stroke-linejoin:miter;stroke-miterlimit:4;stroke-dasharray:none;stroke-opacity:1"
       d="m 48.918477,212.32769 -27.466522,0.20049 -1.321367,259.16581 208.961172,0"
       id="path4236"
       inkscape:connector-curvature="0" />
    <path
       style="fill:#aa8800;fill-rule:evenodd;stroke:#806600;stroke-width:2;stroke-linecap:butt;stroke-linejoin:miter;stroke-miterlimit:4;stroke-dasharray:none;stroke-opacity:1"
       d="m 256.21047,454.24289 -14.48152,8.01942 c -26.14287,-10.05731 -86.03842,-4.22848 -120.71423,-3.32621 -19.43627,0.50574 -57.97515,-2.25609 -83.122948,-2.41699 l -0.400972,-78.18937 1.80437,-6.41554 -3.007283,-0.80194 0.100243,-147.35689 13.633018,-11.42768 3.60874,-0.10024"
       id="path4230"
       inkscape:connector-curvature="0"
       sodipodi:nodetypes="ccsccccccc" />
    <path
       style="fill:#aa8800;fill-rule:evenodd;stroke:#806600;stroke-width:2;stroke-linecap:butt;stroke-linejoin:miter;stroke-miterlimit:4;stroke-dasharray:none;stroke-opacity:1"
       d="m 256.52323,453.90252 14.88529,8.86029 c 33.14051,-11.82352 83.36547,-2.65888 125.5529,-3.83787 24.55655,-0.68627 49.16154,-2.00486 72.97674,-3.00729 l 4.00971,-2.00485 2.20534,-22.65487 -1.60388,-0.60146 0,-15.43739 1.4034,-2.40582 0.80194,-100.0423 -3.40825,-3.80922 3.40825,-0.80195 -0.80194,-84.40442 -2.60631,-3.60874 -6.81651,0"
       id="path4232"
       inkscape:connector-curvature="0"
       sodipodi:nodetypes="ccscccccccccccc" />
    <path
       style="fill:#806600;fill-rule:evenodd;stroke:#554400;stroke-width:2;stroke-linecap:butt;stroke-linejoin:miter;stroke-miterlimit:4;stroke-dasharray:none;stroke-opacity:1"
       d="m 455.30271,211.72624 6.01457,-0.90219 c 0,0 3.20777,3.60874 3.60874,3.60874 0.40097,0 0.90219,13.03156 0.90219,13.03156 l -2.40583,2.70656 2.40583,1.90461 0.30073,115.9809 -1.20292,0.80194 -0.20048,8.21991 1.4034,1.60388 -1.4034,89.21608 c -29.9473,1.92304 -56.29478,1.96165 -87.01074,2.00486 -38.97262,0.0548 -101.9717,-7.19116 -116.28163,6.61602"
       id="path4273"
       inkscape:connector-curvature="0"
       sodipodi:nodetypes="ccsccccccccsc" />
    <path
       style="fill:#ffdd55;fill-rule:evenodd;stroke:#d4aa00;stroke-width:2;stroke-linecap:butt;stroke-linejoin:miter;stroke-miterlimit:4;stroke-dasharray:none;stroke-opacity:1"
       d="m 256.62152,220.5476 c -2.64355,-1.93803 -4.4183,-3.87605 -8.01942,-5.81408 l -2.60631,1.20291 0.80194,-2.20534 c -6.21505,-2.23279 -12.43011,-2.94622 -18.64516,-3.60874 l -1.80437,3.00729 -0.60146,-2.60632 -27.86749,-0.40097 -1.00243,2.40583 -1.60388,-2.8068 -25.17814,0.88499 -1.84294,2.0879 c -3.32799,-1.43003 -51.26755,-1.96849 -76.830443,-0.96803 l -1.80437,1.4034 -4.009711,-1.80437 -5.012139,3.20776 -1.202914,-3.20776 -23.456811,-0.60146 -3.60874,3.20777 0.400971,41.50051 3.60874,3.80923 -3.809225,1.80437 -0.400971,84.00345 2.405826,4.41068 -2.405826,1.60388 -0.601457,41.09954 2.606312,2.60632 c -1.217451,2.55401 -1.641929,5.9019 -0.200485,8.62088 l -2.205342,3.00728 0.200486,30.4738 4.611168,7.21749 27.867493,0.80194 3.207769,-1.80437 2.004856,2.40582 139.738433,-0.80194 0.80195,-3.20777 1.4034,2.8068 c 9.39461,0.0263 17.82009,2.81093 24.75996,9.82379 4.13403,-2.73395 7.86089,-5.72005 13.63302,-8.62087 l -0.90218,-4.61117 4.71141,3.90947 c 3.48254,-0.54422 15.99187,-0.74073 24.15851,-0.50122 l 2.40582,-2.00486 1.20292,1.4034 94.22821,1.20292 1.60389,-1.80437 2.80679,1.80437 29.67187,0.40097 3.20777,-2.40583 1.4034,2.20534 1.4034,-2.00485 1.60388,1.4034 18.64516,-0.80195 4.61116,-3.80922 0.40098,-127.10785 -2.20535,-1.4034 1.80437,-2.8068 0.60146,-45.91119 -5.21262,-5.81408 5.41311,-3.00728 -0.20049,-35.88692 -7.01699,-6.01457 -101.04473,-1.20291 -0.60145,1.60388 -2.20534,-2.20534 -35.48595,-0.20048 -3.60874,2.80679 -3.60874,-2.80679 -22.05341,0.60145 -2.00486,3.20777 -0.40097,-4.00971 c -5.35628,0.9006 -10.79423,1.51535 -15.63787,4.2102 l 0.40097,3.80922 -2.60631,-3.40825 c -3.30758,1.45981 -6.31457,3.4206 -8.82137,6.21505 z"
       id="path4226"
       inkscape:connector-curvature="0"
       sodipodi:nodetypes="ccccccccccccccccccccccccccccccccccccccccccccccccccccccccccccccccccccccccccc" />
    <path
       style="fill:none;fill-rule:evenodd;stroke:#aa8800;stroke-width:2;stroke-linecap:butt;stroke-linejoin:miter;stroke-miterlimit:4;stroke-dasharray:none;stroke-opacity:1"
       d="m 256.22055,220.14663 0,234.03942"
       id="path4228"
       inkscape:connector-curvature="0" />
    <path
       style="fill:#0000ff;fill-rule:evenodd;stroke:#000080;stroke-width:2;stroke-linecap:butt;stroke-linejoin:miter;stroke-miterlimit:4;stroke-dasharray:none;stroke-opacity:1"
       d="m 229.43401,459.00814 -0.0587,16.51349 56.28058,0 -0.14176,-16.16117"
       id="path4234"
       inkscape:connector-curvature="0"
       sodipodi:nodetypes="cccc" />
    <path
       style="fill:#ff00ff;fill-rule:evenodd;stroke:#000000;stroke-width:1px;stroke-linecap:butt;stroke-linejoin:miter;stroke-opacity:1"
       d="m 42.81294,465.17281 -0.05872,9.62992 -19.988822,10e-6 -5.663464,-5.66052 0.200486,-17.86235 10.625228,0 0.141765,13.75118 z"
       id="path4238"
       inkscape:connector-curvature="0"
       sodipodi:nodetypes="cccccccc" />
    <path
       style="fill:none;fill-rule:evenodd;stroke:#000000;stroke-width:1px;stroke-linecap:butt;stroke-linejoin:miter;stroke-opacity:1"
       d="m 42.946105,465.12269 2.619085,2.07635 -0.05012,10.23998 -23.13342,-0.1176 -4.427733,-4.82073 -0.810252,-3.24275"
       id="path4240"
       inkscape:connector-curvature="0"
       sodipodi:nodetypes="cccccc" />
    <path
       sodipodi:nodetypes="cccccccc"
       inkscape:connector-curvature="0"
       id="path4247"
       d="m 43.120792,219.48603 -0.05872,-9.62992 -19.988822,-1e-5 -5.663464,5.66052 0.200486,17.86235 10.625228,0 0.141765,-13.75118 z"
       style="fill:#ff00ff;fill-rule:evenodd;stroke:#000000;stroke-width:1px;stroke-linecap:butt;stroke-linejoin:miter;stroke-opacity:1" />
    <path
       sodipodi:nodetypes="ccc"
       inkscape:connector-curvature="0"
       id="path4249"
       d="m 42.965759,219.28554 1.353521,1.76778 -14.036767,0.1892 -1.85869,-1.57073"
       style="fill:none;fill-rule:evenodd;stroke:#000000;stroke-width:1px;stroke-linecap:butt;stroke-linejoin:miter;stroke-opacity:1" />
    <path
       style="fill:none;fill-rule:evenodd;stroke:#000000;stroke-width:1px;stroke-linecap:butt;stroke-linejoin:miter;stroke-opacity:1"
       d="m 43.106915,209.86314 1.745649,1.51832 -0.02328,9.95948"
       id="path4251"
       inkscape:connector-curvature="0"
       sodipodi:nodetypes="ccc" />
    <path
       style="fill:none;fill-rule:evenodd;stroke:#000000;stroke-width:1px;stroke-linecap:butt;stroke-linejoin:miter;stroke-opacity:1"
       d="m 17.592608,233.4288 1.603885,1.65401 10.926463,-1e-5 0.100243,-13.98387"
       id="path4253"
       inkscape:connector-curvature="0"
       sodipodi:nodetypes="cccc" />
    <path
       style="fill:none;fill-rule:evenodd;stroke:#000000;stroke-width:1px;stroke-linecap:butt;stroke-linejoin:miter;stroke-opacity:1"
       d="m 28.168222,233.47892 1.954734,1.50364"
       id="path4255"
       inkscape:connector-curvature="0" />
    <path
       sodipodi:nodetypes="cccccccc"
       inkscape:connector-curvature="0"
       id="path4259"
       d="m 471.32066,465.17281 0.0587,9.62992 19.98883,10e-6 5.66346,-5.66052 -0.20049,-17.86235 -10.62522,0 -0.14177,13.75118 z"
       style="fill:#ff00ff;fill-rule:evenodd;stroke:#000000;stroke-width:1px;stroke-linecap:butt;stroke-linejoin:miter;stroke-opacity:1" />
    <path
       sodipodi:nodetypes="cccccc"
       inkscape:connector-curvature="0"
       id="path4261"
       d="m 471.1875,465.12269 -2.61909,2.07635 0.0501,10.23998 23.13342,-0.1176 4.42774,-4.82073 0.81025,-3.24275"
       style="fill:none;fill-rule:evenodd;stroke:#000000;stroke-width:1px;stroke-linecap:butt;stroke-linejoin:miter;stroke-opacity:1" />
    <path
       style="fill:#ff00ff;fill-rule:evenodd;stroke:#000000;stroke-width:1px;stroke-linecap:butt;stroke-linejoin:miter;stroke-opacity:1"
       d="m 471.01281,219.48603 0.0587,-9.62992 19.98882,-1e-5 5.66347,5.66052 -0.20049,17.86235 -10.62523,0 -0.14176,-13.75118 z"
       id="path4263"
       inkscape:connector-curvature="0"
       sodipodi:nodetypes="cccccccc" />
    <path
       style="fill:none;fill-rule:evenodd;stroke:#000000;stroke-width:1px;stroke-linecap:butt;stroke-linejoin:miter;stroke-opacity:1"
       d="m 471.16784,219.28554 -1.35352,1.76778 14.03677,0.1892 1.85869,-1.57073"
       id="path4265"
       inkscape:connector-curvature="0"
       sodipodi:nodetypes="ccc" />
    <path
       sodipodi:nodetypes="ccc"
       inkscape:connector-curvature="0"
       id="path4267"
       d="m 471.02669,209.86314 -1.74565,1.51832 0.0233,9.95948"
       style="fill:none;fill-rule:evenodd;stroke:#000000;stroke-width:1px;stroke-linecap:butt;stroke-linejoin:miter;stroke-opacity:1" />
    <path
       sodipodi:nodetypes="cccc"
       inkscape:connector-curvature="0"
       id="path4269"
       d="m 496.541,233.4288 -1.60389,1.65401 -10.92646,-1e-5 -0.10025,-13.98387"
       style="fill:none;fill-rule:evenodd;stroke:#000000;stroke-width:1px;stroke-linecap:butt;stroke-linejoin:miter;stroke-opacity:1" />
    <path
       inkscape:connector-curvature="0"
       id="path4271"
       d="m 485.96538,233.47892 -1.95473,1.50364"
       style="fill:none;fill-rule:evenodd;stroke:#000000;stroke-width:1px;stroke-linecap:butt;stroke-linejoin:miter;stroke-opacity:1" />
  </g>
</svg>
